<svg width="124" height="112" viewBox="0 0 124 112" fill="none" xmlns="http://www.w3.org/2000/svg">
<rect opacity="0.2" width="124" height="112" rx="8" fill="#1D1D22"/>
<path d="M77.2281 72.5825V68.7767C77.2281 66.758 76.4259 64.8219 74.998 63.3944C73.5701 61.967 71.6334 61.165 69.614 61.165H54.386C52.3666 61.165 50.4299 61.967 49.002 63.3944C47.5741 64.8219 46.7719 66.758 46.7719 68.7767V72.5825" stroke="#F5F3F8" stroke-width="1.5" stroke-linecap="round" stroke-linejoin="round"/>
<path d="M62 53.5534C66.2051 53.5534 69.614 50.1455 69.614 45.9417C69.614 41.7379 66.2051 38.3301 62 38.3301C57.7949 38.3301 54.386 41.7379 54.386 45.9417C54.386 50.1455 57.7949 53.5534 62 53.5534Z" stroke="#F5F3F8" stroke-width="1.5" stroke-linecap="round" stroke-linejoin="round"/>
</svg>
