<svg width="104" height="28" viewBox="0 0 104 28" fill="none" xmlns="http://www.w3.org/2000/svg">
<mask id="path-1-outside-1_1034:9335" maskUnits="userSpaceOnUse" x="3" y="6" width="17" height="17" fill="black">
<rect fill="white" x="3" y="6" width="17" height="17"/>
<path d="M13.5858 9.41421L6.39171 16.6083C6.19706 16.8029 6.09974 16.9003 6.03276 17.0186C5.96579 17.1368 5.93241 17.2704 5.86564 17.5374L5.20211 20.1915C5.11186 20.5526 5.06673 20.7331 5.16682 20.8332C5.2669 20.9333 5.44742 20.8881 5.80844 20.7979L5.80845 20.7979L8.46257 20.1344C8.72963 20.0676 8.86316 20.0342 8.98145 19.9672C9.09974 19.9003 9.19706 19.8029 9.39171 19.6083L16.5858 12.4142L16.5858 12.4142C17.2525 11.7475 17.5858 11.4142 17.5858 11C17.5858 10.5858 17.2525 10.2525 16.5858 9.58579L16.4142 9.41421C15.7475 8.74755 15.4142 8.41421 15 8.41421C14.5858 8.41421 14.2525 8.74755 13.5858 9.41421Z"/>
</mask>
<path d="M6.39171 16.6083L7.45237 17.6689H7.45237L6.39171 16.6083ZM13.5858 9.41421L12.5251 8.35355L12.5251 8.35355L13.5858 9.41421ZM16.4142 9.41421L15.3536 10.4749L15.3536 10.4749L16.4142 9.41421ZM16.5858 9.58579L17.6464 8.52513L17.6464 8.52512L16.5858 9.58579ZM16.5858 12.4142L17.6464 13.4749L16.5858 12.4142ZM9.39171 19.6083L8.33105 18.5476L8.33105 18.5476L9.39171 19.6083ZM5.86564 17.5374L7.32086 17.9012V17.9012L5.86564 17.5374ZM5.20211 20.1915L3.7469 19.8277V19.8277L5.20211 20.1915ZM5.80845 20.7979L5.44465 19.3427L5.3793 19.359L5.31567 19.3811L5.80845 20.7979ZM8.46257 20.1344L8.09877 18.6791L8.09877 18.6791L8.46257 20.1344ZM5.16682 20.8332L6.22748 19.7725L6.22747 19.7725L5.16682 20.8332ZM5.80844 20.7979L6.17224 22.2531L6.2376 22.2368L6.30122 22.2146L5.80844 20.7979ZM8.98145 19.9672L8.2424 18.6619L8.2424 18.6619L8.98145 19.9672ZM16.5858 12.4142L17.6465 13.4749V13.4749L16.5858 12.4142ZM6.03276 17.0186L4.72746 16.2795L4.72746 16.2795L6.03276 17.0186ZM7.45237 17.6689L14.6464 10.4749L12.5251 8.35355L5.33105 15.5476L7.45237 17.6689ZM15.3536 10.4749L15.5251 10.6464L17.6464 8.52512L17.4749 8.35355L15.3536 10.4749ZM15.5251 11.3536L8.33105 18.5476L10.4524 20.6689L17.6464 13.4749L15.5251 11.3536ZM4.41043 17.1736L3.7469 19.8277L6.65733 20.5554L7.32086 17.9012L4.41043 17.1736ZM6.17226 22.2531L8.82638 21.5896L8.09877 18.6791L5.44465 19.3427L6.17226 22.2531ZM3.7469 19.8277C3.714 19.9593 3.6437 20.2241 3.62021 20.4642C3.59491 20.7228 3.57801 21.3657 4.10616 21.8938L6.22747 19.7725C6.42048 19.9655 6.53082 20.1949 6.57919 20.405C6.62109 20.587 6.60925 20.7226 6.60596 20.7563C6.60227 20.794 6.59821 20.8029 6.60886 20.7548C6.61898 20.7092 6.6333 20.6515 6.65733 20.5554L3.7469 19.8277ZM5.31567 19.3811L5.31566 19.3811L6.30122 22.2146L6.30123 22.2146L5.31567 19.3811ZM5.44465 19.3427C5.34853 19.3667 5.2908 19.381 5.24519 19.3911C5.19714 19.4018 5.20601 19.3977 5.24374 19.394C5.27744 19.3907 5.41297 19.3789 5.59501 19.4208C5.80513 19.4692 6.03447 19.5795 6.22748 19.7725L4.10615 21.8938C4.63429 22.422 5.27716 22.4051 5.53581 22.3798C5.77593 22.3563 6.04065 22.286 6.17224 22.2531L5.44465 19.3427ZM8.33105 18.5476C8.28079 18.5979 8.24426 18.6344 8.21273 18.6653C8.18146 18.6959 8.16438 18.7118 8.15517 18.7201C8.14674 18.7277 8.15246 18.722 8.16851 18.7099C8.18625 18.6967 8.21142 18.6795 8.2424 18.6619L9.7205 21.2725C10.0569 21.0821 10.314 20.8073 10.4524 20.6689L8.33105 18.5476ZM8.82637 21.5896C9.01618 21.5421 9.38407 21.463 9.7205 21.2725L8.2424 18.6619C8.27338 18.6444 8.30106 18.6316 8.32158 18.6233C8.34016 18.6157 8.34799 18.6137 8.33715 18.6171C8.32532 18.6207 8.30286 18.6271 8.26052 18.6382C8.21783 18.6494 8.16773 18.6619 8.09877 18.6791L8.82637 21.5896ZM15.5251 10.6464C15.6957 10.8171 15.8269 10.9484 15.9362 11.0633C16.046 11.1788 16.1078 11.251 16.1433 11.2974C16.1781 11.3431 16.1624 11.3318 16.1388 11.2754C16.1103 11.207 16.0858 11.1099 16.0858 11H19.0858C19.0858 10.3331 18.7968 9.82956 18.5283 9.47769C18.2863 9.16043 17.9498 8.82847 17.6464 8.52513L15.5251 10.6464ZM17.6464 13.4749L17.6465 13.4749L15.5251 11.3535L15.5251 11.3536L17.6464 13.4749ZM17.6465 13.4749C17.9498 13.1715 18.2863 12.8396 18.5283 12.5223C18.7968 12.1704 19.0858 11.6669 19.0858 11H16.0858C16.0858 10.8901 16.1103 10.793 16.1388 10.7246C16.1624 10.6682 16.1781 10.6569 16.1433 10.7026C16.1078 10.749 16.046 10.8212 15.9362 10.9367C15.8269 11.0516 15.6957 11.1829 15.5251 11.3535L17.6465 13.4749ZM14.6464 10.4749C14.8171 10.3043 14.9484 10.1731 15.0633 10.0638C15.1788 9.954 15.251 9.8922 15.2974 9.85675C15.3431 9.82188 15.3318 9.83762 15.2754 9.86116C15.207 9.88968 15.1099 9.91421 15 9.91421V6.91421C14.3331 6.91421 13.8296 7.20321 13.4777 7.47168C13.1604 7.71374 12.8285 8.0502 12.5251 8.35355L14.6464 10.4749ZM17.4749 8.35355C17.1715 8.0502 16.8396 7.71374 16.5223 7.47168C16.1704 7.20321 15.6669 6.91421 15 6.91421V9.91421C14.8901 9.91421 14.793 9.88968 14.7246 9.86116C14.6682 9.83762 14.6569 9.82188 14.7026 9.85675C14.749 9.8922 14.8212 9.954 14.9367 10.0638C15.0516 10.1731 15.1829 10.3043 15.3536 10.4749L17.4749 8.35355ZM5.33105 15.5476C5.19271 15.686 4.91795 15.9431 4.72746 16.2795L7.33806 17.7576C7.32052 17.7886 7.30335 17.8138 7.29005 17.8315C7.27802 17.8475 7.27232 17.8533 7.27991 17.8448C7.28818 17.8356 7.30412 17.8185 7.33473 17.7873C7.36561 17.7557 7.40211 17.7192 7.45237 17.6689L5.33105 15.5476ZM7.32086 17.9012C7.3381 17.8323 7.35064 17.7822 7.36179 17.7395C7.37285 17.6971 7.37931 17.6747 7.38294 17.6629C7.38627 17.652 7.3843 17.6598 7.37672 17.6784C7.36835 17.6989 7.35561 17.7266 7.33806 17.7576L4.72746 16.2795C4.53698 16.6159 4.45788 16.9838 4.41043 17.1736L7.32086 17.9012Z" fill="#8C4DFF" mask="url(#path-1-outside-1_1034:9335)"/>
<path d="M12.5 9.5L16.5 13.5" stroke="#8C4DFF" stroke-width="1.5"/>
<path d="M44.915 8.0511H41.3653C41.3699 8.77394 41.5196 9.46915 41.8142 10.1367C42.1135 10.8043 42.5716 11.4075 43.1885 11.9461C43.8101 12.4802 44.5813 12.8969 45.5021 13.1961L44.2383 15.116C43.2806 14.8076 42.4588 14.3541 41.7728 13.7555C41.0868 13.1524 40.5412 12.4434 40.136 11.6285C39.7263 12.5216 39.1623 13.2951 38.4441 13.9489C37.7258 14.5981 36.8649 15.0884 35.8612 15.4199L34.5421 13.5C35.4859 13.1961 36.2778 12.761 36.9178 12.1948C37.5578 11.6285 38.0366 10.9885 38.3543 10.2749C38.672 9.56123 38.8377 8.81998 38.8515 8.0511H35.2189V6.06215H44.915V8.0511ZM36.9454 16.5041H48.9137V22.8025H46.4137V18.4931H36.9454V16.5041ZM46.4137 5.01243H48.9137V9.33563H51.3032V11.4075H48.9137V15.7445H46.4137V5.01243ZM58.9093 7.43646C58.9047 8.25598 59.0474 9.02716 59.3375 9.75C59.6275 10.4682 60.0764 11.1013 60.6842 11.6492C61.2965 12.1971 62.0631 12.6137 62.9839 12.8992L61.6579 14.8467C60.7233 14.5244 59.9268 14.0686 59.2684 13.4793C58.6101 12.89 58.0898 12.1855 57.7077 11.366C57.2979 12.3191 56.7293 13.1409 56.0019 13.8315C55.2744 14.5221 54.3904 15.0424 53.3499 15.3923L52.024 13.4033C53.0046 13.0856 53.8195 12.6298 54.4687 12.0359C55.1225 11.442 55.6059 10.7629 55.919 9.99862C56.2321 9.22974 56.3909 8.41482 56.3955 7.55387V5.94475H58.9093V7.43646ZM54.9936 19.3564C54.9936 18.6335 55.2376 18.0143 55.7256 17.4986C56.2136 16.9784 56.9158 16.5824 57.832 16.3108C58.7528 16.0345 59.8416 15.8964 61.0985 15.8964C62.3601 15.8964 63.4489 16.0345 64.3651 16.3108C65.2859 16.5824 65.9927 16.9784 66.4853 17.4986C66.9779 18.0143 67.2242 18.6335 67.2242 19.3564C67.2242 20.0792 66.9779 20.6984 66.4853 21.2141C65.9927 21.7343 65.2859 22.128 64.3651 22.395C63.4489 22.6621 62.3601 22.7956 61.0985 22.7956C59.837 22.7956 58.7482 22.6621 57.832 22.395C56.9158 22.128 56.2136 21.7343 55.7256 21.2141C55.2376 20.6984 54.9936 20.0792 54.9936 19.3564ZM57.4729 19.3564C57.4682 19.8444 57.7721 20.2173 58.3845 20.4751C58.9968 20.7284 59.8854 20.855 61.0502 20.855C62.2519 20.855 63.1681 20.7284 63.7988 20.4751C64.4296 20.2219 64.7473 19.849 64.7519 19.3564C64.7473 18.8499 64.4342 18.4701 63.8126 18.2169C63.1911 17.959 62.2864 17.8301 61.0985 17.8301C59.9153 17.8301 59.0129 17.959 58.3914 18.2169C57.7744 18.4701 57.4682 18.8499 57.4729 19.3564ZM61.3541 8.27901H64.6897V5.01243H67.1759V15.4406H64.6897V10.3163H61.3541V8.27901ZM74.9271 5.75138C75.7834 5.75138 76.55 5.90331 77.2268 6.20718C77.9082 6.51105 78.44 6.93692 78.8221 7.48481C79.2088 8.03269 79.4045 8.65884 79.4091 9.36326C79.4045 9.93416 79.2687 10.459 79.0017 10.9378C78.7346 11.4121 78.3617 11.8126 77.8829 12.1395C77.4041 12.4664 76.847 12.6966 76.2116 12.8301V14.1354C77.7816 14.0341 79.1444 13.9006 80.3 13.7348L80.4865 15.5442C78.8566 15.8389 77.1485 16.0345 75.3622 16.1312C73.5804 16.2279 71.7227 16.2762 69.7889 16.2762L69.5265 14.3011C71.1656 14.3011 72.5606 14.2827 73.7116 14.2459V12.8439C73.0624 12.715 72.4915 12.4871 71.9989 12.1602C71.5063 11.8333 71.1241 11.4305 70.8525 10.9517C70.5855 10.4682 70.4542 9.93877 70.4588 9.36326C70.4542 8.65884 70.6407 8.03269 71.0182 7.48481C71.4004 6.93692 71.9321 6.51105 72.6135 6.20718C73.2949 5.90331 74.0661 5.75138 74.9271 5.75138ZM71.8746 17.4088H74.3884V20.4682H84.4022V22.471H71.8746V17.4088ZM72.7724 9.36326C72.7678 9.71317 72.8552 10.0193 73.0348 10.2818C73.219 10.5396 73.4745 10.7376 73.8014 10.8757C74.1283 11.0092 74.5035 11.076 74.9271 11.076C75.3506 11.076 75.7236 11.0092 76.0459 10.8757C76.3681 10.7376 76.6191 10.5396 76.7986 10.2818C76.9782 10.0239 77.068 9.71777 77.068 9.36326C77.0634 8.81538 76.8677 8.3918 76.4809 8.09254C76.0942 7.78867 75.5762 7.63444 74.9271 7.62983C74.5035 7.63444 74.1283 7.7035 73.8014 7.83702C73.4745 7.97053 73.219 8.16851 73.0348 8.43094C72.8552 8.68877 72.7678 8.99954 72.7724 9.36326ZM81.2945 5.04005H83.7876V10.634H86.0666V12.7058H83.7876V18.6036H81.2945V5.04005ZM103.224 20.8135H86.9669V18.7762H91.1313V16.0483H88.8385V10.0815H98.8868V8.17541H88.8108V6.17265H101.352V12.0635H91.3247V14.0387H101.767V16.0483H99.2528V18.7762H103.224V20.8135ZM96.8012 18.7762V16.0483H93.5553V18.7762H96.8012Z" fill="#8C4DFF"/>
</svg>
