<svg width="74" height="18" viewBox="0 0 74 18" fill="none" xmlns="http://www.w3.org/2000/svg">
<path d="M10.6354 3.0511H7.08564C7.09024 3.77394 7.23987 4.46915 7.53453 5.13674C7.83379 5.80433 8.2919 6.40746 8.90884 6.94613C9.53039 7.4802 10.3016 7.89687 11.2224 8.19613L9.95856 10.116C9.00092 9.80755 8.1791 9.35405 7.49309 8.75552C6.80709 8.15239 6.26151 7.44337 5.85635 6.62845C5.44659 7.52164 4.8826 8.29512 4.16436 8.94889C3.44613 9.59807 2.58518 10.0884 1.58149 10.4199L0.262431 8.5C1.20626 8.19613 1.99816 7.76105 2.63812 7.19475C3.27808 6.62845 3.75691 5.98849 4.07459 5.27486C4.39227 4.56123 4.55801 3.81998 4.57182 3.0511H0.939227V1.06215H10.6354V3.0511ZM2.66575 11.5041H14.634V17.8025H12.134V13.4931H2.66575V11.5041ZM12.134 0.0124309H14.634V4.33563H17.0235V6.40746H14.634V10.7445H12.134V0.0124309ZM24.6296 2.43646C24.625 3.25598 24.7678 4.02716 25.0578 4.75C25.3479 5.46823 25.7968 6.10129 26.4045 6.64917C27.0168 7.19705 27.7834 7.61372 28.7042 7.89917L27.3783 9.84668C26.4436 9.5244 25.6471 9.0686 24.9887 8.47928C24.3304 7.88996 23.8101 7.18554 23.428 6.36602C23.0182 7.31906 22.4496 8.14088 21.7222 8.83149C20.9947 9.5221 20.1108 10.0424 19.0702 10.3923L17.7443 8.40331C18.7249 8.08564 19.5399 7.62983 20.189 7.03591C20.8428 6.44199 21.3262 5.76289 21.6393 4.99862C21.9524 4.22974 22.1112 3.41482 22.1158 2.55387V0.944751H24.6296V2.43646ZM20.7139 14.3564C20.7139 13.6335 20.9579 13.0143 21.4459 12.4986C21.934 11.9784 22.6361 11.5824 23.5523 11.3108C24.4731 11.0345 25.562 10.8964 26.8189 10.8964C28.0804 10.8964 29.1692 11.0345 30.0854 11.3108C31.0062 11.5824 31.713 11.9784 32.2056 12.4986C32.6982 13.0143 32.9445 13.6335 32.9445 14.3564C32.9445 15.0792 32.6982 15.6984 32.2056 16.2141C31.713 16.7343 31.0062 17.128 30.0854 17.395C29.1692 17.6621 28.0804 17.7956 26.8189 17.7956C25.5573 17.7956 24.4685 17.6621 23.5523 17.395C22.6361 17.128 21.934 16.7343 21.4459 16.2141C20.9579 15.6984 20.7139 15.0792 20.7139 14.3564ZM23.1932 14.3564C23.1886 14.8444 23.4924 15.2173 24.1048 15.4751C24.7171 15.7284 25.6057 15.855 26.7705 15.855C27.9722 15.855 28.8884 15.7284 29.5191 15.4751C30.1499 15.2219 30.4676 14.849 30.4722 14.3564C30.4676 13.8499 30.1545 13.4701 29.5329 13.2169C28.9114 12.959 28.0067 12.8301 26.8189 12.8301C25.6356 12.8301 24.7332 12.959 24.1117 13.2169C23.4947 13.4701 23.1886 13.8499 23.1932 14.3564ZM27.0744 3.27901H30.41V0.0124309H32.8962V10.4406H30.41V5.3163H27.0744V3.27901ZM45.3568 0.751381C46.2131 0.751381 46.9797 0.903315 47.6565 1.20718C48.3379 1.51105 48.8697 1.93692 49.2518 2.48481C49.6385 3.03269 49.8342 3.65884 49.8388 4.36326C49.8342 4.93416 49.6984 5.45902 49.4313 5.93785C49.1643 6.41206 48.7914 6.81261 48.3126 7.1395C47.8337 7.46639 47.2766 7.69659 46.6413 7.83011V9.13536C48.2113 9.03407 49.5741 8.90055 50.7297 8.73481L50.9162 10.5442C49.2863 10.8389 47.5782 11.0345 45.7918 11.1312C44.0101 11.2279 42.1523 11.2762 40.2186 11.2762L39.9562 9.3011C41.5952 9.3011 42.9903 9.28269 44.1413 9.24586V7.84392C43.4921 7.71501 42.9212 7.48711 42.4286 7.16022C41.9359 6.83333 41.5538 6.43048 41.2822 5.95166C41.0151 5.46823 40.8839 4.93877 40.8885 4.36326C40.8839 3.65884 41.0704 3.03269 41.4479 2.48481C41.8301 1.93692 42.3618 1.51105 43.0432 1.20718C43.7246 0.903315 44.4958 0.751381 45.3568 0.751381ZM42.3043 12.4088H44.8181V15.4682H54.8319V17.471H42.3043V12.4088ZM43.2021 4.36326C43.1975 4.71317 43.2849 5.01934 43.4645 5.28177C43.6487 5.53959 43.9042 5.73757 44.2311 5.87569C44.558 6.00921 44.9332 6.07597 45.3568 6.07597C45.7803 6.07597 46.1533 6.00921 46.4755 5.87569C46.7978 5.73757 47.0487 5.53959 47.2283 5.28177C47.4079 5.02394 47.4976 4.71777 47.4976 4.36326C47.493 3.81538 47.2974 3.3918 46.9106 3.09254C46.5239 2.78867 46.0059 2.63444 45.3568 2.62983C44.9332 2.63444 44.558 2.7035 44.2311 2.83702C43.9042 2.97053 43.6487 3.16851 43.4645 3.43094C43.2849 3.68877 43.1975 3.99954 43.2021 4.36326ZM51.7242 0.0400541H54.2173V5.63398H56.4963V7.7058H54.2173V13.6036H51.7242V0.0400541ZM73.6535 15.8135H57.3966V13.7762H61.561V11.0483H59.2682V5.08149H69.3165V3.17541H59.2405V1.17265H71.782V7.06354H61.7543V9.03867H72.1963V11.0483H69.6825V13.7762H73.6535V15.8135ZM67.2309 13.7762V11.0483H63.985V13.7762H67.2309Z" fill="#8C4DFF"/>
</svg>
