<svg width="22" height="25" viewBox="0 0 22 25" fill="none" xmlns="http://www.w3.org/2000/svg">
<path d="M4.21403 7.57374C4.59823 4.11595 7.52093 1.5 11 1.5V1.5C14.4791 1.5 17.4018 4.11595 17.786 7.57374L18.0937 10.3436C18.1403 10.7625 18.1636 10.972 18.1974 11.1779C18.3384 12.0362 18.6184 12.8658 19.0264 13.634C19.1243 13.8183 19.2328 13.999 19.4496 14.3605L20.1826 15.5821C20.9884 16.925 21.3912 17.5965 21.104 18.1038C20.8168 18.6111 20.0337 18.6111 18.4676 18.6111H3.53238C1.96627 18.6111 1.18322 18.6111 0.89599 18.1038C0.608761 17.5965 1.01164 16.925 1.81739 15.5821L2.55036 14.3605C2.76725 13.999 2.87569 13.8183 2.97356 13.634C3.38161 12.8658 3.66164 12.0362 3.80262 11.1779C3.83644 10.972 3.85972 10.7625 3.90627 10.3436L4.21403 7.57374Z" stroke="#50FFB8" stroke-width="1.5"/>
<path d="M7.45829 19.4235C7.6672 20.593 8.12753 21.6264 8.76789 22.3634C9.40826 23.1005 10.1929 23.5 11 23.5C11.8072 23.5 12.5918 23.1005 13.2321 22.3634C13.8725 21.6264 14.3328 20.593 14.5417 19.4235" stroke="#50FFB8" stroke-width="1.5" stroke-linecap="round"/>
</svg>
