<svg width="24" height="20" viewBox="0 0 24 20" fill="none" xmlns="http://www.w3.org/2000/svg">
<path fill-rule="evenodd" clip-rule="evenodd" d="M5.70767 2.05957H15.7377C16.6266 2.05954 17.3728 2.05951 17.9662 2.14168C18.5945 2.22869 19.1691 2.42108 19.6317 2.89756C20.0943 3.37405 20.2811 3.96579 20.3656 4.61294C20.4454 5.22414 20.4454 5.99266 20.4453 6.90819V13.1513C20.4454 14.0668 20.4454 14.8353 20.3656 15.4465C20.2811 16.0937 20.0943 16.6854 19.6317 17.1619C19.1691 17.6384 18.5945 17.8308 17.9662 17.9178C17.3727 18 16.6266 17.9999 15.7376 17.9999H5.70768C4.81876 17.9999 4.07257 18 3.47914 17.9178C2.8508 17.8308 2.27626 17.6384 1.81363 17.1619C1.351 16.6854 1.1642 16.0937 1.07973 15.4465C0.999941 14.8353 0.999968 14.0668 1 13.1513V6.9082C0.999968 5.99267 0.999941 5.22414 1.07973 4.61294C1.1642 3.96579 1.351 3.37405 1.81363 2.89756C2.27626 2.42108 2.8508 2.22869 3.47914 2.14168C4.07257 2.05951 4.81875 2.05954 5.70767 2.05957ZM3.69065 3.76201C3.23833 3.82464 3.05461 3.93153 2.93607 4.05362C2.81754 4.1757 2.71376 4.36493 2.65294 4.83079C2.58906 5.32017 2.58738 5.9778 2.58738 6.96429V13.0952C2.58738 14.0817 2.58906 14.7393 2.65294 15.2287C2.71376 15.6945 2.81754 15.8838 2.93607 16.0058C3.05461 16.1279 3.23833 16.2348 3.69065 16.2975C4.1658 16.3632 4.80432 16.365 5.76212 16.365H15.6832C16.641 16.365 17.2795 16.3632 17.7547 16.2975C18.207 16.2348 18.3907 16.1279 18.5092 16.0058C18.6278 15.8838 18.7316 15.6945 18.7924 15.2287C18.8563 14.7393 18.8579 14.0817 18.8579 13.0952V6.96429C18.8579 5.9778 18.8563 5.32017 18.7924 4.83079C18.7316 4.36493 18.6278 4.1757 18.5092 4.05362C18.3907 3.93153 18.207 3.82464 17.7547 3.76201C17.2795 3.69621 16.641 3.69448 15.6832 3.69448H5.76212C4.80432 3.69448 4.1658 3.69621 3.69065 3.76201Z" fill="#8C4DFF"/>
<path fill-rule="evenodd" clip-rule="evenodd" d="M9.44395 11.4596L1.42834 7.17893L2.15904 5.72754L10.1746 10.0082C10.5183 10.1917 10.9271 10.1917 11.2707 10.0082L19.2863 5.72754L20.017 7.17893L12.0014 11.4596C11.1996 11.8878 10.2457 11.8878 9.44395 11.4596Z" fill="#8C4DFF"/>
<circle cx="19" cy="5" r="3.5" fill="#ED4956" stroke="#0F0A1A"/>
</svg>
