<svg width="27" height="22" viewBox="0 0 27 22" fill="none" xmlns="http://www.w3.org/2000/svg">
<path d="M3.3999 12.0279C3.3999 7.07266 7.48034 3.05566 12.4356 3.05566V3.05566C12.5713 3.05566 12.6392 3.05566 12.6784 3.05601C17.5876 3.09885 21.5567 7.06798 21.5996 11.9771C21.5999 12.0164 21.5999 12.0628 21.5999 12.1557V17.7375C21.5999 18.9167 21.5999 19.5064 21.359 19.9516C21.1741 20.2936 20.8934 20.5743 20.5514 20.7593C20.1061 21.0001 19.5165 21.0001 18.3373 21.0001H12.3721C7.4169 21.0001 3.3999 16.9831 3.3999 12.0279V12.0279Z" stroke="current" stroke-width="1.6"/>
<path d="M9.0874 10.4443L15.9124 10.4443" stroke="current" stroke-linecap="round" stroke-linejoin="round"/>
<path d="M12.5 14.6665H15.9125" stroke="current" stroke-linecap="round" stroke-linejoin="round"/>
<circle cx="19.25" cy="7" r="6.2" fill="#ED4956" stroke="#0F0A1A" stroke-width="1.6"/>
</svg>
