<svg width="24" height="20" viewBox="0 0 24 20" fill="none" xmlns="http://www.w3.org/2000/svg">
<path d="M2.77253 2.79397C3.85238 1.70088 5.30072 1.06153 6.82695 1.00421C8.35317 0.946901 9.84434 1.47586 11.0013 2.48496C12.1571 1.47754 13.6464 0.949177 15.1707 1.00564C16.6951 1.0621 18.1422 1.69922 19.2222 2.78945C20.3023 3.87968 20.9356 5.34256 20.9953 6.88522C21.0551 8.42787 20.537 9.93645 19.5446 11.1089L12.3166 18.4479C11.9845 18.7841 11.5391 18.9809 11.0697 18.9987C10.6003 19.0165 10.1416 18.8541 9.78557 18.544L9.68317 18.4488L2.45604 11.1089C1.46421 9.93747 0.945812 8.43027 1.00449 6.88869C1.06316 5.34711 1.69459 3.88475 2.77253 2.79397ZM4.08876 4.1261C3.32755 4.89672 2.88875 5.93441 2.86345 7.02378C2.83814 8.11315 3.22827 9.17056 3.95285 9.97654L4.08876 10.1216L11.0003 17.1167L15.9366 12.1198L12.6461 8.78949L11.6594 9.78812C11.4001 10.0506 11.0923 10.2589 10.7535 10.4011C10.4147 10.5432 10.0515 10.6164 9.68476 10.6165C8.94407 10.6166 8.23364 10.319 7.70977 9.78906C7.18589 9.25911 6.89149 8.54024 6.89131 7.79059C6.89114 7.04095 7.18521 6.32193 7.70884 5.79173L9.66549 3.81049C8.8868 3.18152 7.91214 2.85397 6.91639 2.8866C5.92064 2.91923 4.96896 3.30992 4.23211 3.98855L4.08876 4.1261ZM11.988 6.79036C12.1625 6.61374 12.3992 6.51452 12.6461 6.51452C12.8929 6.51452 13.1296 6.61374 13.3042 6.79036L17.2529 10.7867L17.9119 10.1216C18.6859 9.33886 19.1265 8.28068 19.1395 7.17338C19.1526 6.06607 18.737 4.99756 17.9817 4.19634C17.2264 3.39511 16.1914 2.9248 15.0979 2.88597C14.0044 2.84714 12.9393 3.24288 12.1304 3.98855L11.988 4.1261L9.02599 7.12386C8.86465 7.28704 8.76812 7.50451 8.75474 7.73497C8.74135 7.96542 8.81204 8.19283 8.95339 8.37403L9.02599 8.45599C9.18723 8.61928 9.4021 8.71697 9.6298 8.73052C9.85751 8.74407 10.0822 8.67252 10.2612 8.52947L10.3422 8.45599L11.988 6.79036Z" fill="current" stroke="#0F0A1A" stroke-width="0.2"/>
<circle cx="19" cy="5" r="3.5" fill="#ED4956" stroke="#0F0A1A"/>
</svg>
