<svg width="29" height="23" viewBox="0 0 29 23" fill="none" xmlns="http://www.w3.org/2000/svg">
<path d="M3.0035 4.07346C4.17333 2.87106 5.74237 2.16778 7.39578 2.10473C9.04918 2.04169 10.6646 2.62355 11.9179 3.73355C13.1702 2.6254 14.7835 2.04419 16.4349 2.1063C18.0863 2.16841 19.654 2.86924 20.824 4.06849C21.994 5.26775 22.6801 6.87691 22.7449 8.57383C22.8096 10.2708 22.2483 11.9302 21.1732 13.2199L13.3428 21.2928C12.9831 21.6626 12.5006 21.879 11.9921 21.8986C11.4836 21.9182 10.9867 21.7396 10.6009 21.3985L10.49 21.2938L2.66063 13.2199C1.58615 11.9313 1.02455 10.2734 1.08811 8.57766C1.15168 6.88192 1.83573 5.27332 3.0035 4.07346ZM4.42941 5.5388C3.60476 6.38649 3.1294 7.52794 3.10199 8.72625C3.07457 9.92457 3.49721 11.0877 4.28218 11.9743L4.42941 12.1339L11.9169 19.8285L17.2646 14.3319L13.6998 10.6685L12.6309 11.767C12.35 12.0558 12.0165 12.2849 11.6495 12.4413C11.2825 12.5976 10.8891 12.6781 10.4917 12.6782C9.68933 12.6784 8.9197 12.351 8.35217 11.7681C7.78464 11.1851 7.4657 10.3944 7.46551 9.56975C7.46532 8.74514 7.7839 7.95422 8.35116 7.371L10.4709 5.19164C9.62729 4.49977 8.57141 4.13946 7.49268 4.17536C6.41394 4.21125 5.38296 4.641 4.5847 5.3875L4.42941 5.5388ZM12.9869 8.46949C13.176 8.27521 13.4324 8.16607 13.6998 8.16607C13.9672 8.16607 14.2237 8.27521 14.4128 8.46949L18.6905 12.8655L19.4045 12.1339C20.2429 11.2728 20.7203 10.1088 20.7344 8.89081C20.7486 7.67278 20.2984 6.49741 19.4801 5.61607C18.6619 4.73472 17.5406 4.21737 16.356 4.17466C15.1713 4.13195 14.0175 4.56726 13.1412 5.3875L12.9869 5.5388L9.77808 8.83634C9.60329 9.01585 9.49872 9.25506 9.48422 9.50856C9.46972 9.76206 9.5463 10.0122 9.69942 10.2115L9.77808 10.3017C9.95275 10.4813 10.1855 10.5888 10.4322 10.6037C10.6789 10.6186 10.9223 10.5399 11.1163 10.3825L11.204 10.3017L12.9869 8.46949Z" fill="current" stroke="#0F0A1A" stroke-width="0.2"/>
<circle cx="22" cy="7" r="6.2" fill="#ED4956" stroke="#0F0A1A" stroke-width="1.6"/>
</svg>
