<svg width="26" height="22" viewBox="0 0 26 22" fill="none" xmlns="http://www.w3.org/2000/svg">
<path d="M3.0035 3.07346C4.17333 1.87106 5.74237 1.16778 7.39578 1.10473C9.04918 1.04169 10.6646 1.62355 11.9179 2.73355C13.1702 1.6254 14.7835 1.04419 16.4349 1.1063C18.0863 1.16841 19.654 1.86924 20.824 3.06849C21.994 4.26775 22.6801 5.87691 22.7449 7.57383C22.8096 9.27076 22.2483 10.9302 21.1732 12.2199L13.3428 20.2928C12.9831 20.6626 12.5006 20.879 11.9921 20.8986C11.4836 20.9182 10.9867 20.7396 10.6009 20.3985L10.49 20.2938L2.66063 12.2199C1.58615 10.9313 1.02455 9.2734 1.08811 7.57766C1.15168 5.88192 1.83573 4.27332 3.0035 3.07346ZM4.42941 4.5388C3.60476 5.38649 3.1294 6.52794 3.10199 7.72625C3.07457 8.92457 3.49721 10.0877 4.28218 10.9743L4.42941 11.1339L11.9169 18.8285L17.2646 13.3319L13.6998 9.66854L12.6309 10.767C12.35 11.0558 12.0165 11.2849 11.6495 11.4413C11.2825 11.5976 10.8891 11.6781 10.4917 11.6782C9.68933 11.6784 8.9197 11.351 8.35217 10.7681C7.78464 10.1851 7.4657 9.39435 7.46551 8.56975C7.46532 7.74514 7.7839 6.95422 8.35116 6.371L10.4709 4.19164C9.62729 3.49977 8.57141 3.13946 7.49268 3.17536C6.41394 3.21125 5.38296 3.641 4.5847 4.3875L4.42941 4.5388ZM12.9869 7.46949C13.176 7.27521 13.4324 7.16607 13.6998 7.16607C13.9672 7.16607 14.2237 7.27521 14.4128 7.46949L18.6905 11.8655L19.4045 11.1339C20.2429 10.2728 20.7203 9.10885 20.7344 7.89081C20.7486 6.67278 20.2984 5.49741 19.4801 4.61607C18.6619 3.73472 17.5406 3.21737 16.356 3.17466C15.1713 3.13195 14.0175 3.56726 13.1412 4.3875L12.9869 4.5388L9.77808 7.83634C9.60329 8.01585 9.49872 8.25506 9.48422 8.50856C9.46972 8.76206 9.5463 9.01221 9.69942 9.21153L9.77808 9.30168C9.95275 9.48131 10.1855 9.58877 10.4322 9.60367C10.6789 9.61857 10.9223 9.53987 11.1163 9.38252L11.204 9.30168L12.9869 7.46949Z" fill="current" stroke="#0F0A1A" stroke-width="0.2"/>
</svg>
