<svg width="28" height="28" viewBox="0 0 28 28" fill="none" xmlns="http://www.w3.org/2000/svg">
<g filter="url(#filter0_d_1304:9029)">
<path d="M5.89762 4.09661C6.96101 3.03303 8.38729 2.41094 9.89025 2.35518C11.3932 2.29941 12.8617 2.81409 14.001 3.79595C15.1392 2.81573 16.6057 2.30162 18.1069 2.35656C19.6081 2.4115 21.0331 3.03142 22.0967 4.09222C23.1602 5.15302 23.7839 6.5764 23.8428 8.07741C23.9016 9.57842 23.3914 11.0463 22.4141 12.1871L15.2962 19.3279C14.9692 19.6551 14.5306 19.8465 14.0683 19.8638C13.6061 19.8812 13.1544 19.7232 12.8038 19.4214L12.703 19.3289L5.58596 12.1871C4.60924 11.0473 4.09874 9.58076 4.15652 8.08079C4.2143 6.58083 4.83611 5.15794 5.89762 4.09661ZM7.19379 5.39278C6.44418 6.1426 6.01207 7.15227 5.98715 8.21223C5.96223 9.2722 6.34641 10.3011 7.05996 11.0853L7.19379 11.2264L14 18.0327L18.8611 13.1707L15.6207 9.93028L14.649 10.9019C14.3937 11.1574 14.0906 11.36 13.7569 11.4983C13.4233 11.6366 13.0657 11.7078 12.7045 11.7079C11.9751 11.7081 11.2755 11.4185 10.7596 10.9029C10.2437 10.3872 9.95381 9.68775 9.95364 8.95834C9.95347 8.22894 10.2431 7.52934 10.7587 7.01344L12.6855 5.0857C11.9187 4.47371 10.9589 4.15499 9.97833 4.18674C8.99776 4.2185 8.06058 4.59863 7.33496 5.25894L7.19379 5.39278ZM14.9726 7.98511C15.1445 7.81326 15.3776 7.71672 15.6207 7.71672C15.8638 7.71672 16.0969 7.81326 16.2688 7.98511L20.1573 11.8736L20.8063 11.2264C21.5685 10.4648 22.0024 9.4352 22.0152 8.35779C22.0281 7.28038 21.6188 6.24071 20.8751 5.46112C20.1313 4.68153 19.112 4.22391 18.0352 4.18613C16.9583 4.14835 15.9095 4.5334 15.1129 5.25894L14.9726 5.39278L12.0558 8.30961C11.8969 8.46839 11.8018 8.67998 11.7887 8.90422C11.7755 9.12846 11.8451 9.34973 11.9843 9.52603L12.0558 9.60578C12.2146 9.76466 12.4262 9.85972 12.6504 9.8729C12.8746 9.88608 13.0959 9.81647 13.2722 9.67728L13.352 9.60578L14.9726 7.98511Z" fill="#F5F3F8" stroke="#0F0A1A" stroke-width="0.2"/>
</g>
<defs>
<filter id="filter0_d_1304:9029" x="-1" y="0" width="30" height="30" filterUnits="userSpaceOnUse" color-interpolation-filters="sRGB">
<feFlood flood-opacity="0" result="BackgroundImageFix"/>
<feColorMatrix in="SourceAlpha" type="matrix" values="0 0 0 0 0 0 0 0 0 0 0 0 0 0 0 0 0 0 127 0" result="hardAlpha"/>
<feOffset dy="4"/>
<feGaussianBlur stdDeviation="2"/>
<feComposite in2="hardAlpha" operator="out"/>
<feColorMatrix type="matrix" values="0 0 0 0 0 0 0 0 0 0 0 0 0 0 0 0 0 0 0.25 0"/>
<feBlend mode="normal" in2="BackgroundImageFix" result="effect1_dropShadow_1304:9029"/>
<feBlend mode="normal" in="SourceGraphic" in2="effect1_dropShadow_1304:9029" result="shape"/>
</filter>
</defs>
</svg>
