<svg width="72" height="72" viewBox="0 0 72 72" fill="none" xmlns="http://www.w3.org/2000/svg">
<circle cx="36" cy="36" r="36" fill="#8C4DFF"/>
<path d="M32.6667 41L32.6667 36" stroke="#F5F3F8" stroke-width="2" stroke-linecap="round"/>
<path d="M39.3333 41L39.3333 36" stroke="#F5F3F8" stroke-width="2" stroke-linecap="round"/>
<path d="M21 27.6665H51H50C48.1144 27.6665 47.1716 27.6665 46.5858 28.2523C46 28.8381 46 29.7809 46 31.6665V45.3332C46 47.2188 46 48.1616 45.4142 48.7474C44.8284 49.3332 43.8856 49.3332 42 49.3332H30C28.1144 49.3332 27.1716 49.3332 26.5858 48.7474C26 48.1616 26 47.2188 26 45.3332V31.6665C26 29.7809 26 28.8381 25.4142 28.2523C24.8284 27.6665 23.8856 27.6665 22 27.6665H21Z" stroke="#F5F3F8" stroke-width="2" stroke-linecap="round"/>
<path d="M32.7802 21.6177C32.9701 21.4405 33.3886 21.2839 33.9707 21.1722C34.5529 21.0605 35.2661 21 35.9999 21C36.7337 21 37.447 21.0605 38.0291 21.1722C38.6113 21.2839 39.0298 21.4405 39.2197 21.6177" stroke="#F5F3F8" stroke-width="2" stroke-linecap="round"/>
</svg>
