<svg width="72" height="72" viewBox="0 0 72 72" fill="none" xmlns="http://www.w3.org/2000/svg">
<circle cx="36" cy="36" r="36" fill="#8C4DFF"/>
<path d="M25.6848 39.9012L25.6848 39.9012C25.6841 39.9019 25.6834 39.9025 25.6828 39.9032C25.6703 39.9156 25.6575 39.9284 25.6444 39.9414C25.4922 40.0926 25.2996 40.2841 25.1627 40.5259C25.0258 40.7676 24.9608 41.0313 24.9094 41.2396C24.9047 41.2585 24.9001 41.277 24.8957 41.2949L23.5655 46.6157L24.5337 46.8577L23.5655 46.6157C23.5627 46.6269 23.5597 46.6385 23.5567 46.6505C23.5199 46.797 23.4689 46.9999 23.4513 47.1795C23.4311 47.3862 23.4244 47.8382 23.7932 48.207L24.5003 47.4999L23.7932 48.207C24.162 48.5757 24.6139 48.5691 24.8206 48.5488C25.0002 48.5313 25.2031 48.4803 25.3496 48.4434C25.3616 48.4404 25.3733 48.4375 25.3845 48.4347L30.7053 47.1045C30.7232 47.1 30.7417 47.0955 30.7606 47.0908C30.9689 47.0394 31.2325 46.9743 31.4743 46.8374L30.9816 45.9672L31.4743 46.8374C31.7161 46.7006 31.9075 46.5079 32.0588 46.3558C32.0725 46.342 32.0859 46.3285 32.099 46.3154L45.2931 33.1213L45.3315 33.0829C45.6315 32.7831 45.9229 32.4917 46.131 32.219C46.3655 31.9116 46.586 31.5137 46.586 31C46.586 30.4863 46.3655 30.0884 46.131 29.781C45.9229 29.5083 45.6315 29.217 45.3315 28.9172L45.2931 28.8787L43.1215 26.7071L43.083 26.6686C42.7832 26.3687 42.4919 26.0772 42.2192 25.8692C41.9118 25.6347 41.5138 25.4142 41.0002 25.4142C40.4865 25.4142 40.0885 25.6347 39.7811 25.8692C39.5085 26.0772 39.2171 26.3687 38.9173 26.6686C38.9045 26.6814 38.8917 26.6943 38.8788 26.7071L25.6848 39.9012Z" stroke="#F5F3F8" stroke-width="2"/>
<path d="M36.8335 28.5L43.5002 35.1667" stroke="#F5F3F8" stroke-width="2"/>
</svg>
