<svg width="78" height="70" viewBox="0 0 78 70" fill="none" xmlns="http://www.w3.org/2000/svg">
<rect opacity="0.2" width="78" height="70" rx="8" fill="#1D1D22"/>
<path d="M48.5789 45.3639V42.9853C48.5789 41.7236 48.0743 40.5136 47.1761 39.6214C46.2779 38.7292 45.0597 38.228 43.7894 38.228H34.2105C32.9402 38.228 31.722 38.7292 30.8238 39.6214C29.9256 40.5136 29.421 41.7236 29.421 42.9853V45.3639" stroke="#F5F3F8" stroke-width="1.5" stroke-linecap="round" stroke-linejoin="round"/>
<path d="M39 33.4706C41.6452 33.4706 43.7895 31.3407 43.7895 28.7133C43.7895 26.086 41.6452 23.9561 39 23.9561C36.3549 23.9561 34.2106 26.086 34.2106 28.7133C34.2106 31.3407 36.3549 33.4706 39 33.4706Z" stroke="#F5F3F8" stroke-width="1.5" stroke-linecap="round" stroke-linejoin="round"/>
</svg>
