<svg width="24" height="25" viewBox="0 0 24 25" fill="none" xmlns="http://www.w3.org/2000/svg">
<path fill-rule="evenodd" clip-rule="evenodd" d="M9.25 4.5C11.3211 4.5 13 6.17893 13 8.25C13 10.3211 11.3211 12 9.25 12C7.17893 12 5.5 10.3211 5.5 8.25C5.5 6.17893 7.17893 4.5 9.25 4.5ZM11.5 8.25C11.5 7.00736 10.4926 6 9.25 6C8.00736 6 7 7.00736 7 8.25C7 9.49264 8.00736 10.5 9.25 10.5C10.4926 10.5 11.5 9.49264 11.5 8.25Z" fill="current"/>
<path fill-rule="evenodd" clip-rule="evenodd" d="M12.25 13.5C14.3211 13.5 16 15.1789 16 17.25C16 19.3211 14.3211 21 12.25 21H6.25C4.17893 21 2.5 19.3211 2.5 17.25C2.5 15.1789 4.17893 13.5 6.25 13.5H12.25ZM14.5 17.25C14.5 16.0074 13.4926 15 12.25 15H6.25C5.00736 15 4 16.0074 4 17.25C4 18.4926 5.00736 19.5 6.25 19.5H12.25C13.4926 19.5 14.5 18.4926 14.5 17.25Z" fill="current"/>
<path d="M13.4979 10.8887C13.6556 10.6353 13.9515 10.5 14.25 10.5C15.4926 10.5 16.5 9.49264 16.5 8.25C16.5 7.00736 15.4926 6 14.25 6C13.9515 6 13.6556 5.86473 13.4979 5.61135C13.4909 5.60014 13.4839 5.58896 13.4768 5.57782C13.2142 5.16331 13.3473 4.5764 13.835 4.5227C13.9713 4.5077 14.1097 4.5 14.25 4.5C16.3211 4.5 18 6.17893 18 8.25C18 10.3211 16.3211 12 14.25 12C14.1097 12 13.9713 11.9923 13.835 11.9773C13.3473 11.9236 13.2142 11.3367 13.4768 10.9222C13.4839 10.911 13.4909 10.8999 13.4979 10.8887Z" fill="current"/>
<path d="M16.5417 18.8169C16.6552 18.6275 16.8556 18.5 17.0764 18.5H17.25C18.4926 18.5 19.5 17.4926 19.5 16.25C19.5 15.0074 18.4926 14 17.25 14H17.0764C16.8556 14 16.6552 13.8725 16.5417 13.6831C16.2646 13.2208 16.5653 12.5 17.1043 12.5H17.25C19.3211 12.5 21 14.1789 21 16.25C21 18.3211 19.3211 20 17.25 20H17.1043C16.5653 20 16.2646 19.2792 16.5417 18.8169Z" fill="current"/>
</svg>
