<svg width="26" height="26" viewBox="0 0 26 26" fill="none" xmlns="http://www.w3.org/2000/svg">
<g clip-path="url(#clip0_2681_12692)">
<path d="M16.6404 13.5152C17.5021 13.5152 18.2004 14.2136 18.2004 15.0752C18.2004 15.9368 17.5021 16.6352 16.6404 16.6352L15.6004 16.6352C16.4621 16.6352 17.1604 17.3336 17.1604 18.1952C17.1604 19.0568 16.4621 19.7552 15.6004 19.7552L14.0404 19.7552L14.5927 19.7552C15.4543 19.7552 16.1527 20.4536 16.1527 21.3152C16.1527 22.1768 15.4543 22.8752 14.5927 22.8752L9.36043 22.8752C5.05275 22.8752 1.56043 19.3829 1.56043 15.0752C1.56043 12.9214 2.43351 10.9714 3.84479 9.55956L10.8742 3.97737C11.493 3.48597 12.3816 3.53693 12.9406 4.09541C13.548 4.70277 13.548 5.68713 12.9406 6.29449L10.7436 8.49148C10.0411 9.194 10.5387 10.3947 11.5319 10.3947L14.0404 10.3947L22.8804 10.3947C23.7421 10.3947 24.4404 11.0931 24.4404 11.9547C24.4404 12.8163 23.7421 13.5147 22.8804 13.5147L15.6004 13.5147" stroke="#FECE47" fill="#1d1d22" stroke-width="2" stroke-miterlimit="10" stroke-linecap="round" stroke-linejoin="round"/>
</g>
<defs>
<clipPath id="clip0_2681_12692">
<rect width="26" height="26" fill="white" transform="translate(26) rotate(90)"/>
</clipPath>
</defs>
</svg>
