<svg width="24" height="25" viewBox="0 0 24 25" fill="none" xmlns="http://www.w3.org/2000/svg">
<path d="M4 13.5C4 11.6144 4 10.6716 4.58579 10.0858C5.17157 9.5 6.11438 9.5 8 9.5H16C17.8856 9.5 18.8284 9.5 19.4142 10.0858C20 10.6716 20 11.6144 20 13.5V15.5C20 18.3284 20 19.7426 19.1213 20.6213C18.2426 21.5 16.8284 21.5 14 21.5H10C7.17157 21.5 5.75736 21.5 4.87868 20.6213C4 19.7426 4 18.3284 4 15.5V13.5Z" stroke="current" stroke-width="1.5"/>
<path d="M16 8.5V7.5C16 5.29086 14.2091 3.5 12 3.5V3.5C9.79086 3.5 8 5.29086 8 7.5V8.5" stroke="current" stroke-width="1.5" stroke-linecap="round"/>
<circle cx="12" cy="15.5" r="1.25" fill="#A09BAC" stroke="current" stroke-width="1.5"/>
</svg>
