<svg width="24" height="25" viewBox="0 0 24 25" fill="none" xmlns="http://www.w3.org/2000/svg">
<path fill-rule="evenodd" clip-rule="evenodd" d="M7.36431 2.03113C4.17771 1.42 1.38009 4.21763 1.99123 7.40422L3.74587 16.5533C4.1273 18.5421 5.63275 20.1327 7.58892 20.638C11.4945 21.6469 15.0639 18.0248 13.9203 14.1358C13.8887 14.0284 13.9884 13.9286 14.0959 13.9602C17.985 15.1038 21.607 11.5344 20.5981 7.6288C20.0928 5.67262 18.5022 4.16718 16.5134 3.78575L7.36431 2.03113ZM3.46438 7.12169C3.05294 4.97633 4.93642 3.09284 7.08178 3.50428L16.2308 5.2589C17.6457 5.53026 18.7843 6.60453 19.1458 8.00397C19.8683 10.8011 17.2715 13.3305 14.519 12.5211C13.2727 12.1546 12.1147 13.3126 12.4812 14.559C13.2906 17.3114 10.7612 19.9082 7.96409 19.1857C6.56466 18.8241 5.49038 17.6856 5.21903 16.2707L3.46438 7.12169Z" fill="current"/>
<path d="M16.3336 19.5555C16.0407 19.2626 15.5658 19.2626 15.2729 19.5555C14.98 19.8483 14.98 20.3232 15.2729 20.6161L16.6872 22.0303C16.98 22.3232 17.4549 22.3232 17.7478 22.0303C18.0407 21.7374 18.0407 21.2626 17.7478 20.9697L16.3336 19.5555Z" fill="current"/>
<path d="M17.0407 16.0199C16.7478 15.727 16.2729 15.727 15.98 16.0199C15.6872 16.3128 15.6872 16.7877 15.98 17.0806L17.3943 18.4948C17.6872 18.7877 18.162 18.7877 18.4549 18.4948C18.7478 18.2019 18.7478 17.727 18.4549 17.4341L17.0407 16.0199Z" fill="current"/>
<path d="M20.5762 15.3128C20.2833 15.0199 19.8085 15.0199 19.5156 15.3128C19.2227 15.6057 19.2227 16.0806 19.5156 16.3735L20.9298 17.7877C21.2227 18.0806 21.6976 18.0806 21.9905 17.7877C22.2833 17.4948 22.2833 17.0199 21.9905 16.727L20.5762 15.3128Z" fill="current"/>
</svg>
