<svg width="189" height="188" viewBox="0 0 189 188" fill="none" xmlns="http://www.w3.org/2000/svg">
<g opacity="0.2" filter="url(#filter0_f_989_9051)">
<rect width="115.152" height="137.682" rx="38.2139" transform="matrix(0.898307 0.439368 0.439368 -0.898307 0.169556 124.414)" fill="url(#paint0_linear_989_9051)"/>
<rect x="3.57825" y="-1.22765" width="109.802" height="132.332" rx="35.5389" transform="matrix(0.898307 0.439368 0.439368 -0.898307 25.809 132.61)" fill="url(#paint1_linear_989_9051)"/>
<rect x="3.57825" y="-1.22765" width="109.802" height="132.332" rx="35.5389" transform="matrix(0.898307 0.439368 0.439368 -0.898307 25.809 132.61)" stroke="url(#paint2_linear_989_9051)" stroke-width="5.34995"/>
<rect x="3.57825" y="-1.22765" width="109.802" height="132.332" rx="35.5389" transform="matrix(0.898307 0.439368 0.439368 -0.898307 25.809 132.61)" stroke="url(#paint3_linear_989_9051)" stroke-width="5.34995"/>
</g>
<defs>
<filter id="filter0_f_989_9051" x="5.06482" y="5.62842" width="178.881" height="176.583" filterUnits="userSpaceOnUse" color-interpolation-filters="sRGB">
<feFlood flood-opacity="0" result="BackgroundImageFix"/>
<feBlend mode="normal" in="SourceGraphic" in2="BackgroundImageFix" result="shape"/>
<feGaussianBlur stdDeviation="4" result="effect1_foregroundBlur_989_9051"/>
</filter>
<linearGradient id="paint0_linear_989_9051" x1="23.4001" y1="-0.328942" x2="22.1526" y2="137.945" gradientUnits="userSpaceOnUse">
<stop stop-color="#182A45"/>
<stop offset="0.15625" stop-color="#05152F"/>
<stop offset="0.758565" stop-color="#07122D"/>
<stop offset="0.833789" stop-color="#031E4E"/>
<stop offset="0.91676" stop-color="#040918"/>
<stop offset="1" stop-color="#040918"/>
</linearGradient>
<linearGradient id="paint1_linear_989_9051" x1="57.5762" y1="0" x2="57.5762" y2="137.682" gradientUnits="userSpaceOnUse">
<stop stop-color="#13213B"/>
<stop offset="0.831735" stop-color="#15304C"/>
<stop offset="1" stop-color="#0B3761"/>
</linearGradient>
<linearGradient id="paint2_linear_989_9051" x1="105.304" y1="4.3485" x2="10.9638" y2="134.164" gradientUnits="userSpaceOnUse">
<stop offset="0.670529" stop-color="#152E4A"/>
<stop offset="0.925805" stop-color="#143776"/>
<stop offset="1" stop-color="#15253C"/>
</linearGradient>
<linearGradient id="paint3_linear_989_9051" x1="13.1182" y1="-21.9599" x2="57.0684" y2="41.5794" gradientUnits="userSpaceOnUse">
<stop stop-color="white" stop-opacity="0.4"/>
<stop offset="1" stop-color="white" stop-opacity="0"/>
</linearGradient>
</defs>
</svg>
