<svg width="28" height="28" viewBox="0 0 28 28" fill="none" xmlns="http://www.w3.org/2000/svg">
<path d="M11.6666 22.1667L10.9595 21.4596L10.2524 22.1667L10.9595 22.8738L11.6666 22.1667ZM15.6262 16.7929L10.9595 21.4596L12.3737 22.8738L17.0404 18.2071L15.6262 16.7929ZM10.9595 22.8738L15.6262 27.5404L17.0404 26.1262L12.3737 21.4596L10.9595 22.8738Z" fill="#A09BAC"/>
<path d="M6.92742 18.0835C6.02853 16.5266 5.6685 14.7166 5.90316 12.9342C6.13781 11.1518 6.95404 9.49667 8.22525 8.22546C9.49646 6.95425 11.1516 6.13802 12.934 5.90336C14.7164 5.66871 16.5264 6.02874 18.0833 6.92762C19.6402 7.8265 20.857 9.214 21.545 10.8749C22.2329 12.5358 22.3536 14.3773 21.8884 16.1139C21.4231 17.8504 20.3978 19.3848 18.9715 20.4792C17.5452 21.5736 15.7977 22.1668 14 22.1668" stroke="#A09BAC" stroke-width="2" stroke-linecap="round"/>
</svg>
