<svg width="24" height="25" viewBox="0 0 24 25" fill="none" xmlns="http://www.w3.org/2000/svg">
<path fill-rule="evenodd" clip-rule="evenodd" d="M22.4689 7.86382C23.08 4.67722 20.2824 1.8796 17.0958 2.49074L7.94673 4.24539C5.95789 4.62681 4.36735 6.13226 3.86202 8.08843C2.85311 11.994 6.47515 15.5635 10.3642 14.4198C10.4716 14.3882 10.5714 14.488 10.5398 14.5954C9.39617 18.4845 12.9656 22.1065 16.8712 21.0976C18.8274 20.5923 20.3328 19.0017 20.7142 17.0129L22.4689 7.86382ZM17.3783 3.96389C19.5237 3.55245 21.4072 5.43593 20.9957 7.58129L19.2411 16.7304C18.9697 18.1453 17.8955 19.2838 16.496 19.6453C13.6989 20.3679 11.1695 17.771 11.9789 15.0186C12.3454 13.7722 11.1874 12.6142 9.94105 12.9807C7.18864 13.7901 4.59178 11.2607 5.31435 8.4636C5.67585 7.06417 6.81437 5.98989 8.22926 5.71854L17.3783 3.96389Z" fill="current"/>
<path d="M4.94454 16.8331C5.23744 16.5402 5.23744 16.0653 4.94454 15.7725C4.65165 15.4796 4.17678 15.4796 3.88388 15.7725L2.46967 17.1867C2.17678 17.4796 2.17678 17.9544 2.46967 18.2473C2.76256 18.5402 3.23744 18.5402 3.53033 18.2473L4.94454 16.8331Z" fill="current"/>
<path d="M8.48008 17.5402C8.77297 17.2473 8.77297 16.7725 8.48008 16.4796C8.18718 16.1867 7.71231 16.1867 7.41942 16.4796L6.0052 17.8938C5.71231 18.1867 5.71231 18.6615 6.0052 18.9544C6.2981 19.2473 6.77297 19.2473 7.06586 18.9544L8.48008 17.5402Z" fill="current"/>
<path d="M9.18718 21.0758C9.48008 20.7829 9.48008 20.308 9.18718 20.0151C8.89429 19.7222 8.41942 19.7222 8.12652 20.0151L6.71231 21.4293C6.41942 21.7222 6.41942 22.1971 6.71231 22.49C7.0052 22.7829 7.48008 22.7829 7.77297 22.49L9.18718 21.0758Z" fill="current"/>
</svg>
