<svg width="32" height="32" viewBox="0 0 32 32" fill="none" xmlns="http://www.w3.org/2000/svg">
<path d="M8.33137 11.9137L10.0996 15.008C10.3764 15.4925 10.5148 15.7348 10.5148 16.0003C10.5148 16.2659 10.3764 16.5081 10.0996 16.9926L8.33136 20.087C7.09306 22.254 6.47391 23.3375 6.95673 23.8748C7.43956 24.4122 8.58287 23.912 10.8695 22.9116L22.4784 17.8326C24.2739 17.0471 25.1717 16.6543 25.1717 16.0003C25.1717 15.3463 24.2739 14.9535 22.4784 14.168L10.8695 9.0891C8.58287 8.0887 7.43956 7.5885 6.95673 8.12582C6.47391 8.66314 7.09306 9.74666 8.33137 11.9137Z" stroke="#F5F3F8" stroke-width="2"/>
</svg>
