<svg width="24" height="20" viewBox="0 0 24 20" fill="none" xmlns="http://www.w3.org/2000/svg">
<path d="M12 12.5C13.3807 12.5 14.5 11.3807 14.5 10C14.5 8.61929 13.3807 7.5 12 7.5C10.6193 7.5 9.5 8.61929 9.5 10C9.5 11.3807 10.6193 12.5 12 12.5Z" stroke="current" stroke-width="1.6" stroke-linecap="round" stroke-linejoin="round"/>
<path d="M18.1667 12.5002C18.0558 12.7515 18.0227 13.0303 18.0717 13.3007C18.1207 13.571 18.2496 13.8204 18.4417 14.0168L18.4917 14.0668C18.6467 14.2216 18.7696 14.4054 18.8535 14.6078C18.9373 14.8101 18.9805 15.027 18.9805 15.246C18.9805 15.465 18.9373 15.6819 18.8535 15.8842C18.7696 16.0866 18.6467 16.2704 18.4917 16.4252C18.3369 16.5801 18.1531 16.7031 17.9508 16.7869C17.7484 16.8708 17.5316 16.914 17.3125 16.914C17.0935 16.914 16.8766 16.8708 16.6743 16.7869C16.472 16.7031 16.2882 16.5801 16.1334 16.4252L16.0834 16.3752C15.887 16.183 15.6375 16.0542 15.3672 16.0052C15.0969 15.9561 14.8181 15.9892 14.5667 16.1002C14.3202 16.2058 14.11 16.3812 13.962 16.6048C13.8139 16.8283 13.7344 17.0903 13.7334 17.3585V17.5002C13.7334 17.9422 13.5578 18.3661 13.2452 18.6787C12.9327 18.9912 12.5087 19.1668 12.0667 19.1668C11.6247 19.1668 11.2008 18.9912 10.8882 18.6787C10.5756 18.3661 10.4 17.9422 10.4 17.5002V17.4252C10.3936 17.1493 10.3043 16.8818 10.1438 16.6574C9.98329 16.433 9.75899 16.2621 9.50004 16.1668C9.24869 16.0559 8.96988 16.0228 8.69955 16.0718C8.42922 16.1208 8.17977 16.2497 7.98337 16.4418L7.93337 16.4918C7.77859 16.6468 7.59477 16.7697 7.39244 16.8536C7.19011 16.9375 6.97323 16.9806 6.75421 16.9806C6.53518 16.9806 6.3183 16.9375 6.11597 16.8536C5.91364 16.7697 5.72983 16.6468 5.57504 16.4918C5.42008 16.337 5.29715 16.1532 5.21327 15.9509C5.1294 15.7486 5.08623 15.5317 5.08623 15.3127C5.08623 15.0936 5.1294 14.8768 5.21327 14.6744C5.29715 14.4721 5.42008 14.2883 5.57504 14.1335L5.62504 14.0835C5.81715 13.8871 5.94603 13.6376 5.99504 13.3673C6.04406 13.097 6.01097 12.8182 5.90004 12.5668C5.7944 12.3204 5.619 12.1101 5.39543 11.9621C5.17185 11.814 4.90986 11.7346 4.64171 11.7335H4.50004C4.05801 11.7335 3.63409 11.5579 3.32153 11.2453C3.00897 10.9328 2.83337 10.5089 2.83337 10.0668C2.83337 9.6248 3.00897 9.20088 3.32153 8.88832C3.63409 8.57576 4.05801 8.40016 4.50004 8.40016H4.57504C4.85087 8.39371 5.11838 8.30443 5.34279 8.14392C5.5672 7.98341 5.73814 7.75911 5.83337 7.50016C5.9443 7.24882 5.97739 6.97 5.92838 6.69967C5.87936 6.42934 5.75049 6.17989 5.55837 5.9835L5.50837 5.9335C5.35341 5.77871 5.23048 5.59489 5.14661 5.39256C5.06273 5.19023 5.01956 4.97335 5.01956 4.75433C5.01956 4.5353 5.06273 4.31843 5.14661 4.1161C5.23048 3.91377 5.35341 3.72995 5.50837 3.57516C5.66316 3.4202 5.84698 3.29727 6.04931 3.2134C6.25164 3.12952 6.46851 3.08635 6.68754 3.08635C6.90657 3.08635 7.12344 3.12952 7.32577 3.2134C7.5281 3.29727 7.71192 3.4202 7.86671 3.57516L7.91671 3.62516C8.11311 3.81728 8.36255 3.94615 8.63288 3.99517C8.90321 4.04418 9.18203 4.01109 9.43337 3.90016H9.50004C9.74651 3.79453 9.95672 3.61913 10.1048 3.39555C10.2528 3.17198 10.3323 2.90998 10.3334 2.64183V2.50016C10.3334 2.05814 10.509 1.63421 10.8215 1.32165C11.1341 1.00909 11.558 0.833496 12 0.833496C12.4421 0.833496 12.866 1.00909 13.1786 1.32165C13.4911 1.63421 13.6667 2.05814 13.6667 2.50016V2.57516C13.6678 2.84332 13.7472 3.10531 13.8953 3.32888C14.0434 3.55246 14.2536 3.72786 14.5 3.8335C14.7514 3.94442 15.0302 3.97752 15.3005 3.9285C15.5709 3.87948 15.8203 3.75061 16.0167 3.5585L16.0667 3.5085C16.2215 3.35354 16.4053 3.2306 16.6076 3.14673C16.81 3.06286 17.0268 3.01968 17.2459 3.01968C17.4649 3.01968 17.6818 3.06286 17.8841 3.14673C18.0864 3.2306 18.2702 3.35354 18.425 3.5085C18.58 3.66328 18.7029 3.8471 18.7868 4.04943C18.8707 4.25176 18.9139 4.46864 18.9139 4.68766C18.9139 4.90669 18.8707 5.12357 18.7868 5.3259C18.7029 5.52823 18.58 5.71204 18.425 5.86683L18.375 5.91683C18.1829 6.11323 18.0541 6.36268 18.005 6.633C17.956 6.90333 17.9891 7.18215 18.1 7.4335V7.50016C18.2057 7.74664 18.3811 7.95684 18.6047 8.10491C18.8282 8.25297 19.0902 8.33243 19.3584 8.3335H19.5C19.9421 8.3335 20.366 8.50909 20.6786 8.82165C20.9911 9.13421 21.1667 9.55813 21.1667 10.0002C21.1667 10.4422 20.9911 10.8661 20.6786 11.1787C20.366 11.4912 19.9421 11.6668 19.5 11.6668H19.425C19.1569 11.6679 18.8949 11.7474 18.6713 11.8954C18.4477 12.0435 18.2723 12.2537 18.1667 12.5002Z" stroke="current" stroke-width="1.6" stroke-linecap="round" stroke-linejoin="round"/>
</svg>
