<svg width="26" height="22" viewBox="0 0 26 22" fill="none" xmlns="http://www.w3.org/2000/svg">
<path d="M13.0001 13.75C14.4959 13.75 15.7084 12.5188 15.7084 11C15.7084 9.48122 14.4959 8.25 13.0001 8.25C11.5043 8.25 10.2917 9.48122 10.2917 11C10.2917 12.5188 11.5043 13.75 13.0001 13.75Z" stroke="current" stroke-width="1.6" stroke-linecap="round" stroke-linejoin="round"/>
<path d="M19.6807 13.7503C19.5605 14.0268 19.5247 14.3335 19.5778 14.6309C19.6309 14.9282 19.7705 15.2026 19.9786 15.4187L20.0328 15.4737C20.2006 15.6439 20.3338 15.8461 20.4247 16.0687C20.5155 16.2912 20.5623 16.5298 20.5623 16.7707C20.5623 17.0117 20.5155 17.2502 20.4247 17.4728C20.3338 17.6954 20.2006 17.8976 20.0328 18.0678C19.8651 18.2383 19.666 18.3735 19.4468 18.4658C19.2276 18.558 18.9926 18.6055 18.7553 18.6055C18.5181 18.6055 18.2831 18.558 18.0639 18.4658C17.8447 18.3735 17.6456 18.2383 17.4779 18.0678L17.4237 18.0128C17.211 17.8015 16.9407 17.6597 16.6479 17.6058C16.355 17.5519 16.053 17.5883 15.7807 17.7103C15.5137 17.8265 15.286 18.0195 15.1256 18.2654C14.9651 18.5113 14.8791 18.7995 14.8779 19.0945V19.2503C14.8779 19.7366 14.6877 20.2029 14.3491 20.5467C14.0105 20.8905 13.5512 21.0837 13.0724 21.0837C12.5935 21.0837 12.1342 20.8905 11.7956 20.5467C11.457 20.2029 11.2668 19.7366 11.2668 19.2503V19.1678C11.2598 18.8644 11.1631 18.5702 10.9892 18.3233C10.8153 18.0764 10.5723 17.8884 10.2918 17.7837C10.0195 17.6616 9.71746 17.6252 9.4246 17.6792C9.13175 17.7331 8.86151 17.8748 8.64875 18.0862L8.59458 18.1412C8.42689 18.3116 8.22776 18.4468 8.00857 18.5391C7.78938 18.6314 7.55443 18.6788 7.31715 18.6788C7.07987 18.6788 6.84492 18.6314 6.62573 18.5391C6.40654 18.4468 6.20741 18.3116 6.03972 18.1412C5.87184 17.9709 5.73867 17.7687 5.64781 17.5461C5.55694 17.3236 5.51017 17.085 5.51017 16.8441C5.51017 16.6031 5.55694 16.3646 5.64781 16.142C5.73867 15.9195 5.87184 15.7173 6.03972 15.547L6.09389 15.492C6.30201 15.276 6.44162 15.0016 6.49472 14.7042C6.54782 14.4068 6.51198 14.1001 6.3918 13.8237C6.27736 13.5525 6.08735 13.3213 5.84514 13.1584C5.60293 12.9956 5.31911 12.9082 5.02861 12.907H4.87514C4.39627 12.907 3.93702 12.7138 3.59842 12.37C3.25981 12.0262 3.06958 11.5599 3.06958 11.0737C3.06958 10.5874 3.25981 10.1211 3.59842 9.7773C3.93702 9.43348 4.39627 9.24032 4.87514 9.24032H4.95639C5.2552 9.23323 5.545 9.13502 5.78811 8.95846C6.03123 8.7819 6.21641 8.53517 6.31958 8.25032C6.43975 7.97384 6.4756 7.66715 6.4225 7.36979C6.3694 7.07242 6.22979 6.79803 6.02166 6.58199L5.9675 6.52699C5.79962 6.35672 5.66645 6.15453 5.57558 5.93197C5.48472 5.7094 5.43795 5.47084 5.43795 5.22991C5.43795 4.98898 5.48472 4.75041 5.57558 4.52785C5.66645 4.30529 5.79962 4.10309 5.9675 3.93283C6.13518 3.76237 6.33432 3.62714 6.55351 3.53488C6.7727 3.44262 7.00765 3.39513 7.24493 3.39513C7.4822 3.39513 7.71716 3.44262 7.93635 3.53488C8.15554 3.62714 8.35467 3.76237 8.52236 3.93283L8.57652 3.98783C8.78929 4.19915 9.05952 4.34091 9.35238 4.39483C9.64524 4.44875 9.94729 4.41235 10.2196 4.29032H10.2918C10.5588 4.17413 10.7865 3.98118 10.9469 3.73525C11.1073 3.48932 11.1934 3.20113 11.1946 2.90616V2.75033C11.1946 2.2641 11.3848 1.79778 11.7234 1.45396C12.062 1.11015 12.5213 0.916992 13.0001 0.916992C13.479 0.916992 13.9382 1.11015 14.2769 1.45396C14.6155 1.79778 14.8057 2.2641 14.8057 2.75033V2.83283C14.8068 3.1278 14.8929 3.41599 15.0533 3.66192C15.2137 3.90785 15.4415 4.10079 15.7085 4.21699C15.9808 4.33901 16.2828 4.37541 16.5757 4.3215C16.8685 4.26758 17.1388 4.12582 17.3515 3.91449L17.4057 3.85949C17.5734 3.68904 17.7725 3.55381 17.9917 3.46155C18.2109 3.36929 18.4458 3.3218 18.6831 3.3218C18.9204 3.3218 19.1554 3.36929 19.3745 3.46155C19.5937 3.55381 19.7929 3.68904 19.9606 3.85949C20.1284 4.02976 20.2616 4.23196 20.3525 4.45452C20.4433 4.67708 20.4901 4.91565 20.4901 5.15658C20.4901 5.3975 20.4433 5.63607 20.3525 5.85863C20.2616 6.0812 20.1284 6.28339 19.9606 6.45366L19.9064 6.50866C19.6983 6.7247 19.5586 6.99909 19.5055 7.29645C19.4524 7.59381 19.4883 7.90051 19.6085 8.17699V8.25032C19.7229 8.52145 19.9129 8.75267 20.1551 8.91554C20.3973 9.07841 20.6812 9.16581 20.9717 9.16699H21.1251C21.604 9.16699 22.0632 9.36015 22.4019 9.70396C22.7405 10.0478 22.9307 10.5141 22.9307 11.0003C22.9307 11.4866 22.7405 11.9529 22.4019 12.2967C22.0632 12.6405 21.604 12.8337 21.1251 12.8337H21.0439C20.7534 12.8348 20.4696 12.9222 20.2274 13.0851C19.9851 13.248 19.7951 13.4792 19.6807 13.7503Z" stroke="current" stroke-width="1.6" stroke-linecap="round" stroke-linejoin="round"/>
</svg>
