<svg width="197" height="195" viewBox="0 0 197 195" fill="none" xmlns="http://www.w3.org/2000/svg">
<g opacity="0.6">
<rect width="116.009" height="139.211" rx="50" transform="matrix(-0.857167 -0.515038 -0.515038 0.857167 196.096 75.3628)" fill="url(#paint0_linear_992_9003)"/>
<rect x="-4.80272" y="1.19745" width="109.009" height="132.211" rx="46.5" transform="matrix(-0.857167 -0.515038 -0.515038 0.857167 162.934 58.1232)" fill="url(#paint1_linear_992_9003)"/>
<rect x="-4.80272" y="1.19745" width="109.009" height="132.211" rx="46.5" transform="matrix(-0.857167 -0.515038 -0.515038 0.857167 162.934 58.1232)" stroke="url(#paint2_linear_992_9003)" stroke-width="7"/>
<rect x="-4.80272" y="1.19745" width="109.009" height="132.211" rx="46.5" transform="matrix(-0.857167 -0.515038 -0.515038 0.857167 162.934 58.1232)" stroke="url(#paint3_linear_992_9003)" stroke-width="7"/>
</g>
<defs>
<linearGradient id="paint0_linear_992_9003" x1="23.5742" y1="-0.332593" x2="22.3082" y2="139.476" gradientUnits="userSpaceOnUse">
<stop stop-color="#182A45"/>
<stop offset="0.15625" stop-color="#05152F"/>
<stop offset="0.758565" stop-color="#07122D"/>
<stop offset="0.833789" stop-color="#031E4E"/>
<stop offset="0.91676" stop-color="#040918"/>
<stop offset="1" stop-color="#040918"/>
</linearGradient>
<linearGradient id="paint1_linear_992_9003" x1="58.0044" y1="0" x2="58.0044" y2="139.211" gradientUnits="userSpaceOnUse">
<stop stop-color="#13213B"/>
<stop offset="0.831735" stop-color="#15304C"/>
<stop offset="1" stop-color="#0B3761"/>
</linearGradient>
<linearGradient id="paint2_linear_992_9003" x1="106.087" y1="4.39677" x2="10.5933" y2="135.324" gradientUnits="userSpaceOnUse">
<stop offset="0.670529" stop-color="#152E4A"/>
<stop offset="0.925805" stop-color="#143776"/>
<stop offset="1" stop-color="#15253C"/>
</linearGradient>
<linearGradient id="paint3_linear_992_9003" x1="13.2157" y1="-22.2037" x2="57.7105" y2="41.8899" gradientUnits="userSpaceOnUse">
<stop stop-color="white" stop-opacity="0.4"/>
<stop offset="1" stop-color="white" stop-opacity="0"/>
</linearGradient>
</defs>
</svg>
