<svg width="26" height="15" viewBox="0 0 26 15" fill="none" xmlns="http://www.w3.org/2000/svg">
<path d="M1 3C1 2.05719 1 1.58579 1.29289 1.29289C1.58579 1 2.05719 1 3 1H18.7206C19.1857 1 19.4182 1 19.6212 1.09603C19.8243 1.19206 19.9718 1.37183 20.2668 1.73137L23.9591 6.23137C24.4573 6.83862 24.7065 7.14225 24.7065 7.5C24.7065 7.85775 24.4573 8.16138 23.9591 8.76863L20.2668 13.2686C19.9718 13.6282 19.8243 13.8079 19.6212 13.904C19.4182 14 19.1857 14 18.7206 14H3C2.05719 14 1.58579 14 1.29289 13.7071C1 13.4142 1 12.9428 1 12V3Z" stroke="#F5F3F8" stroke-width="2"/>
<ellipse cx="16.3333" cy="7.50033" rx="1.11111" ry="1.08333" fill="white" stroke="#F5F3F8" stroke-width="2"/>
</svg>
