<svg width="80" height="21" viewBox="0 0 80 21" fill="none" xmlns="http://www.w3.org/2000/svg">
<path d="M3.8039 16.5861L4.33298 16.0545L3.8039 16.5861C4.09368 16.8745 4.45019 16.8721 4.63086 16.854C4.79076 16.838 4.97549 16.7912 5.1262 16.753C5.13703 16.7502 5.1477 16.7475 5.15816 16.7449L4.97454 16.0177L5.15816 16.7449L7.14364 16.2435C7.16096 16.2391 7.1784 16.2348 7.19595 16.2304C7.41096 16.1765 7.64215 16.1187 7.85295 15.9983C8.06376 15.8779 8.2311 15.7082 8.38673 15.5504C8.39943 15.5375 8.41205 15.5247 8.42461 15.512L14.2954 9.58208L14.3193 9.55791C14.5524 9.32255 14.7665 9.10635 14.925 8.90873C15.0973 8.69387 15.2583 8.43687 15.3162 8.10802C15.3515 7.90721 15.3515 7.70175 15.3162 7.50093C15.2583 7.17208 15.0973 6.91509 14.925 6.70023C14.7665 6.50261 14.5524 6.28641 14.3193 6.05105L14.2954 6.02687L14.2711 6.00237C14.0337 5.76255 13.816 5.5426 13.6168 5.37983C13.4006 5.20308 13.1409 5.03739 12.8073 4.97786C12.604 4.94158 12.3958 4.94158 12.1925 4.97786C11.8588 5.03739 11.5992 5.20308 11.3829 5.37983C11.1837 5.5426 10.966 5.76255 10.7286 6.00238L10.7044 6.02687L4.85463 11.9355C4.8422 11.9481 4.82965 11.9607 4.81703 11.9734C4.66234 12.129 4.49603 12.2964 4.37838 12.506C4.26073 12.7155 4.2045 12.9447 4.1522 13.1578C4.14793 13.1752 4.14369 13.1924 4.13944 13.2096L3.63874 15.2326C3.63615 15.2431 3.6335 15.2537 3.6308 15.2646C3.59333 15.4155 3.54739 15.6004 3.53211 15.7604C3.51486 15.9412 3.51412 16.2977 3.8039 16.5861Z" stroke="#F5F3F8" stroke-width="1.5"/>
<path d="M10.4165 6.54102L13.7499 9.90792" stroke="#F5F3F8" stroke-width="1.5"/>
<path d="M31.5797 4.90255C31.5797 5.5287 31.8209 6.12723 32.3034 6.69813C32.7896 7.26903 33.4231 7.74969 34.204 8.14012C34.9848 8.53054 35.797 8.78468 36.6404 8.90255L36.1432 9.90807C35.4102 9.78653 34.7012 9.57474 34.0161 9.27271C33.3347 8.97069 32.7252 8.595 32.1874 8.14564C31.6496 7.6926 31.2371 7.18984 30.9498 6.63735C30.6625 7.19352 30.25 7.69813 29.7123 8.15117C29.1782 8.60052 28.5705 8.97437 27.8891 9.27271C27.2077 9.57106 26.5005 9.78284 25.7675 9.90807L25.2592 8.90255C26.1064 8.78468 26.9185 8.53238 27.6957 8.14564C28.4728 7.7589 29.1027 7.28192 29.5852 6.7147C30.0677 6.1438 30.3089 5.53975 30.3089 4.90255V4.10697H31.5797V4.90255ZM24.6073 11.4329H37.2703V12.4606H31.5134V17.4992H30.3089V12.4606H24.6073V11.4329ZM50.1492 11.886H48.9227V8.25061H46.1161V7.23404H48.9227V3.60973H50.1492V11.886ZM38.6907 10.781C39.3721 10.5342 39.9816 10.1733 40.5194 9.69813C41.0571 9.22299 41.4752 8.67787 41.7735 8.06277C42.0756 7.44767 42.2266 6.81415 42.2266 6.16222V5.64288H39.0885V4.62631H46.5691V5.64288H43.4641V6.15117C43.4641 6.74785 43.6078 7.32796 43.8951 7.8915C44.1824 8.45135 44.5857 8.95043 45.105 9.38874C45.6244 9.82336 46.2192 10.1549 46.8896 10.3832L46.2487 11.3666C45.4752 11.0867 44.7956 10.6705 44.21 10.118C43.6244 9.56553 43.1787 8.92833 42.873 8.20642C42.5746 9.02041 42.1161 9.7368 41.4973 10.3556C40.8822 10.9744 40.1603 11.4403 39.3315 11.7534L38.6907 10.781ZM40.8896 14.9025C40.8859 14.3611 41.07 13.897 41.442 13.5103C41.814 13.1235 42.35 12.8289 43.0498 12.6263C43.7496 12.42 44.5802 12.3169 45.5415 12.3169C46.4991 12.3169 47.326 12.42 48.0222 12.6263C48.722 12.8289 49.2579 13.1235 49.6299 13.5103C50.0056 13.897 50.1934 14.3611 50.1934 14.9025C50.1934 15.444 50.0056 15.9062 49.6299 16.2893C49.2579 16.676 48.7238 16.9707 48.0277 17.1733C47.3315 17.3795 46.5028 17.4845 45.5415 17.4882C44.5765 17.4845 43.7441 17.3795 43.0443 17.1733C42.3481 16.9707 41.814 16.676 41.442 16.2893C41.07 15.9062 40.8859 15.444 40.8896 14.9025ZM42.105 14.9025C42.1013 15.234 42.2376 15.5213 42.5139 15.7644C42.7901 16.0075 43.1861 16.1917 43.7017 16.3169C44.221 16.4458 44.8343 16.5084 45.5415 16.5048C46.245 16.5084 46.8546 16.4458 47.3702 16.3169C47.8859 16.1917 48.2818 16.0075 48.5581 15.7644C48.838 15.5213 48.978 15.234 48.978 14.9025C48.978 14.5674 48.838 14.2782 48.5581 14.0351C48.2818 13.7884 47.8859 13.6005 47.3702 13.4716C46.8546 13.3427 46.245 13.2782 45.5415 13.2782C44.8343 13.2782 44.221 13.3427 43.7017 13.4716C43.1861 13.6005 42.7901 13.7884 42.5139 14.0351C42.2376 14.2782 42.1013 14.5674 42.105 14.9025ZM63.4149 9.33349H65.7354V10.3611H63.4149V17.4992H62.1994V3.60973H63.4149V9.33349ZM52.5862 5.84177H56.1552V3.77548H57.3818V5.84177H60.8514V6.85835H52.5862V5.84177ZM53.3818 11.2009C53.3781 10.5858 53.5217 10.0351 53.8127 9.54896C54.1037 9.06277 54.5088 8.68524 55.0282 8.41636C55.5475 8.1438 56.1331 8.00752 56.7851 8.00752C57.4333 8.00752 58.0153 8.1438 58.5309 8.41636C59.0466 8.68524 59.4499 9.06277 59.7409 9.54896C60.0355 10.0315 60.1847 10.5821 60.1884 11.2009C60.1847 11.8197 60.0355 12.3703 59.7409 12.8528C59.4499 13.3353 59.0466 13.711 58.5309 13.9799C58.0153 14.2488 57.4333 14.3832 56.7851 14.3832C56.1331 14.3832 55.5475 14.2488 55.0282 13.9799C54.5088 13.711 54.1037 13.3353 53.8127 12.8528C53.5217 12.3666 53.3781 11.816 53.3818 11.2009ZM54.553 11.2009C54.5494 11.6134 54.6433 11.9836 54.8348 12.3114C55.0263 12.6392 55.2915 12.8952 55.6304 13.0793C55.9729 13.2598 56.3578 13.3482 56.7851 13.3445C57.2087 13.3482 57.588 13.2598 57.9232 13.0793C58.2621 12.8952 58.5273 12.6392 58.7188 12.3114C58.914 11.9836 59.0134 11.6134 59.0171 11.2009C59.0134 10.7884 58.914 10.4182 58.7188 10.0904C58.5273 9.7589 58.2621 9.50108 57.9232 9.31691C57.588 9.12907 57.2087 9.03515 56.7851 9.03515C56.3578 9.03515 55.9729 9.12907 55.6304 9.31691C55.2915 9.50108 55.0263 9.7589 54.8348 10.0904C54.6433 10.4182 54.5494 10.7884 54.553 11.2009ZM78.1723 17.4992H76.9458V3.60973H78.1723V17.4992ZM66.8685 13.886C68.7211 13.0094 70.141 11.9154 71.1281 10.6042C72.1152 9.29297 72.6769 7.79758 72.8132 6.11802H67.5093V5.12354H74.0618C74.0545 7.21562 73.5241 9.09776 72.4707 10.77C71.4209 12.4385 69.7745 13.8123 67.5314 14.8915L66.8685 13.886Z" fill="#F5F3F8"/>
</svg>
