<svg width="103" height="32" viewBox="0 0 103 32" fill="none" xmlns="http://www.w3.org/2000/svg">
<mask id="path-1-outside-1_1485:10587" maskUnits="userSpaceOnUse" x="2.99988" y="8" width="17" height="17" fill="black">
<rect fill="white" x="2.99988" y="8" width="17" height="17"/>
<path d="M13.5857 11.4142L6.39159 18.6083C6.19694 18.8029 6.09962 18.9003 6.03264 19.0186C5.96567 19.1368 5.93229 19.2704 5.86552 19.5374L5.20199 22.1915C5.11173 22.5526 5.0666 22.7331 5.16669 22.8332C5.26678 22.9333 5.4473 22.8881 5.80832 22.7979L5.80833 22.7979L8.46245 22.1344C8.72951 22.0676 8.86304 22.0342 8.98133 21.9672C9.09962 21.9003 9.19694 21.8029 9.39159 21.6083L16.5857 14.4142L16.5857 14.4142C17.2523 13.7475 17.5857 13.4142 17.5857 13C17.5857 12.5858 17.2523 12.2525 16.5857 11.5858L16.4141 11.4142C15.7474 10.7475 15.4141 10.4142 14.9999 10.4142C14.5857 10.4142 14.2523 10.7475 13.5857 11.4142Z"/>
</mask>
<path d="M6.39159 18.6083L7.45225 19.6689H7.45225L6.39159 18.6083ZM13.5857 11.4142L12.525 10.3536L12.525 10.3536L13.5857 11.4142ZM16.4141 11.4142L15.3534 12.4749L15.3534 12.4749L16.4141 11.4142ZM16.5857 11.5858L17.6463 10.5251L17.6463 10.5251L16.5857 11.5858ZM16.5857 14.4142L17.6463 15.4749L16.5857 14.4142ZM9.39159 21.6083L8.33093 20.5476L8.33093 20.5476L9.39159 21.6083ZM5.86552 19.5374L7.32073 19.9012V19.9012L5.86552 19.5374ZM5.20199 22.1915L3.74678 21.8277V21.8277L5.20199 22.1915ZM5.80833 22.7979L5.44453 21.3427L5.37917 21.359L5.31555 21.3811L5.80833 22.7979ZM8.46245 22.1344L8.09865 20.6791L8.09865 20.6791L8.46245 22.1344ZM5.16669 22.8332L6.22736 21.7725L6.22735 21.7725L5.16669 22.8332ZM5.80832 22.7979L6.17212 24.2531L6.23747 24.2368L6.3011 24.2146L5.80832 22.7979ZM8.98133 21.9672L8.24228 20.6619L8.24227 20.6619L8.98133 21.9672ZM16.5857 14.4142L17.6463 15.4749V15.4749L16.5857 14.4142ZM6.03264 19.0186L4.72734 18.2795L4.72734 18.2795L6.03264 19.0186ZM7.45225 19.6689L14.6463 12.4749L12.525 10.3536L5.33093 17.5476L7.45225 19.6689ZM15.3534 12.4749L15.525 12.6464L17.6463 10.5251L17.4747 10.3536L15.3534 12.4749ZM15.525 13.3536L8.33093 20.5476L10.4523 22.6689L17.6463 15.4749L15.525 13.3536ZM4.41031 19.1736L3.74678 21.8277L6.6572 22.5554L7.32073 19.9012L4.41031 19.1736ZM6.17213 24.2531L8.82625 23.5896L8.09865 20.6791L5.44453 21.3427L6.17213 24.2531ZM3.74678 21.8277C3.71388 21.9593 3.64358 22.2241 3.62009 22.4642C3.59479 22.7228 3.57789 23.3657 4.10603 23.8938L6.22735 21.7725C6.42036 21.9655 6.5307 22.1949 6.57906 22.405C6.62097 22.587 6.60913 22.7226 6.60584 22.7563C6.60214 22.794 6.59809 22.8029 6.60874 22.7548C6.61886 22.7092 6.63317 22.6515 6.6572 22.5554L3.74678 21.8277ZM5.31555 21.3811L5.31554 21.3811L6.3011 24.2146L6.30111 24.2146L5.31555 21.3811ZM5.44452 21.3427C5.34841 21.3667 5.29068 21.381 5.24507 21.3911C5.19702 21.4018 5.20588 21.3977 5.24362 21.394C5.27731 21.3907 5.41284 21.3789 5.59489 21.4208C5.80501 21.4692 6.03435 21.5795 6.22736 21.7725L4.10603 23.8938C4.63417 24.422 5.27703 24.4051 5.53569 24.3798C5.7758 24.3563 6.04052 24.286 6.17212 24.2531L5.44452 21.3427ZM8.33093 20.5476C8.28067 20.5979 8.24414 20.6344 8.21261 20.6653C8.18134 20.6959 8.16425 20.7118 8.15505 20.7201C8.14661 20.7277 8.15234 20.722 8.16839 20.7099C8.18613 20.6967 8.2113 20.6795 8.24228 20.6619L9.72037 23.2725C10.0568 23.0821 10.3139 22.8073 10.4523 22.6689L8.33093 20.5476ZM8.82625 23.5896C9.01605 23.5421 9.38395 23.463 9.72038 23.2725L8.24227 20.6619C8.27326 20.6444 8.30094 20.6316 8.32146 20.6233C8.34004 20.6157 8.34787 20.6137 8.33702 20.6171C8.3252 20.6207 8.30274 20.6271 8.2604 20.6382C8.2177 20.6494 8.16761 20.6619 8.09865 20.6791L8.82625 23.5896ZM15.525 12.6464C15.6956 12.8171 15.8268 12.9484 15.9361 13.0633C16.0459 13.1788 16.1077 13.251 16.1431 13.2974C16.178 13.3431 16.1623 13.3318 16.1387 13.2754C16.1102 13.207 16.0857 13.1099 16.0857 13H19.0857C19.0857 12.3331 18.7967 11.8296 18.5282 11.4777C18.2861 11.1604 17.9497 10.8285 17.6463 10.5251L15.525 12.6464ZM17.6463 15.4749L17.6463 15.4749L15.525 13.3535L15.525 13.3536L17.6463 15.4749ZM17.6463 15.4749C17.9497 15.1715 18.2861 14.8396 18.5282 14.5223C18.7967 14.1704 19.0857 13.6669 19.0857 13H16.0857C16.0857 12.8901 16.1102 12.793 16.1387 12.7246C16.1623 12.6682 16.178 12.6569 16.1431 12.7026C16.1077 12.749 16.0459 12.8212 15.9361 12.9367C15.8268 13.0516 15.6956 13.1829 15.525 13.3535L17.6463 15.4749ZM14.6463 12.4749C14.8169 12.3043 14.9483 12.1731 15.0632 12.0638C15.1787 11.954 15.2508 11.8922 15.2973 11.8567C15.343 11.8219 15.3317 11.8376 15.2752 11.8612C15.2069 11.8897 15.1098 11.9142 14.9999 11.9142V8.91421C14.3329 8.91421 13.8294 9.20321 13.4776 9.47168C13.1603 9.71374 12.8284 10.0502 12.525 10.3536L14.6463 12.4749ZM17.4748 10.3536C17.1714 10.0502 16.8394 9.71374 16.5222 9.47168C16.1703 9.20321 15.6668 8.91421 14.9999 8.91421V11.9142C14.89 11.9142 14.7929 11.8897 14.7245 11.8612C14.6681 11.8376 14.6568 11.8219 14.7024 11.8567C14.7489 11.8922 14.8211 11.954 14.9366 12.0638C15.0515 12.1731 15.1828 12.3043 15.3534 12.4749L17.4748 10.3536ZM5.33093 17.5476C5.19259 17.686 4.91782 17.9431 4.72734 18.2795L7.33794 19.7576C7.3204 19.7886 7.30322 19.8138 7.28993 19.8315C7.2779 19.8475 7.2722 19.8533 7.27979 19.8448C7.28806 19.8356 7.304 19.8185 7.33461 19.7873C7.36549 19.7557 7.40199 19.7192 7.45225 19.6689L5.33093 17.5476ZM7.32073 19.9012C7.33797 19.8323 7.35052 19.7822 7.36167 19.7395C7.37273 19.6971 7.37918 19.6747 7.38282 19.6629C7.38615 19.652 7.38418 19.6598 7.3766 19.6784C7.36823 19.6989 7.35549 19.7266 7.33794 19.7576L4.72734 18.2795C4.53686 18.6159 4.45776 18.9838 4.41031 19.1736L7.32073 19.9012Z" fill="#F5F3F8" mask="url(#path-1-outside-1_1485:10587)"/>
<path d="M12.4999 11.5L16.4999 15.5" stroke="#F5F3F8" stroke-width="1.5"/>
<path d="M44.9031 15.38C41.6431 14.9 38.4431 12.68 38.4431 10.18V9.18H36.7231V10.18C36.7231 12.74 33.5631 14.9 30.3031 15.38L30.9631 16.7C33.7631 16.22 36.4631 14.68 37.5831 12.5C38.7431 14.66 41.4431 16.22 44.2231 16.7L44.9031 15.38ZM45.6831 18.64H29.4831V20H36.7231V26.5H38.3631V20H45.7031L45.6831 18.64ZM57.6416 13.2V14.54H61.1816V19.24H62.8416V8.56H61.1816V13.2H57.6416ZM58.6416 17.28C56.0416 16.36 54.2816 14.1 54.2816 11.8V11.18H58.2216V9.86H48.6416V11.18H52.6416V11.8C52.6416 14.38 50.8016 16.8 48.1216 17.78L48.9816 19.08C51.0816 18.28 52.7416 16.6 53.5016 14.52C54.2816 16.36 55.8216 17.84 57.8216 18.56L58.6416 17.28ZM56.9216 25.2C54.2216 25.2 52.5816 24.44 52.5816 23.14C52.5816 21.84 54.2216 21.06 56.9216 21.06C59.6216 21.06 61.2616 21.84 61.2616 23.14C61.2616 24.44 59.6216 25.2 56.9216 25.2ZM56.9216 19.8C53.2416 19.8 50.9416 21.02 50.9416 23.14C50.9416 25.26 53.2416 26.48 56.9216 26.48C60.6016 26.48 62.9016 25.26 62.9016 23.14C62.9016 21.02 60.6016 19.8 56.9216 19.8ZM71.92 21.12C70.3 21.12 69.12 19.96 69.12 18.36C69.12 16.74 70.3 15.58 71.92 15.58C73.56 15.58 74.74 16.74 74.74 18.36C74.74 19.96 73.56 21.12 71.92 21.12ZM71.92 14.22C69.4 14.22 67.58 15.94 67.58 18.36C67.58 20.8 69.4 22.48 71.92 22.48C74.48 22.48 76.3 20.8 76.3 18.36C76.3 15.94 74.48 14.22 71.92 14.22ZM72.72 8.76H71.08V11.42H66.56V12.74H77.14V11.42H72.72V8.76ZM83.42 15.92H80.48V8.56H78.84V26.48H80.48V17.3H83.42V15.92ZM86.3184 10.48V11.8H93.0584C92.7184 16.06 90.3184 19.5 85.4984 21.8L86.3784 23.14C92.3384 20.22 94.7184 15.66 94.7184 10.48H86.3184ZM98.3384 8.54V26.48H99.9784V8.54H98.3384Z" fill="#F5F3F8"/>
</svg>
