<svg width="24" height="25" viewBox="0 0 24 25" fill="none" xmlns="http://www.w3.org/2000/svg">
<path d="M11.5657 21.8478L11.4596 21.1053L11.5657 21.8478ZM7.6896 21.7049L8.181 21.1383L7.6896 21.7049ZM20.2664 19.8637L20.833 20.3551L20.2664 19.8637ZM20.2664 5.13628L19.6998 5.62768L20.2664 5.13628ZM11.4596 3.8947L15.7425 4.50654L15.9546 3.02161L11.6718 2.40978L11.4596 3.8947ZM20.25 9.70377V15.2962H21.75V9.70377H20.25ZM15.7425 20.4935L11.4596 21.1053L11.6717 22.5902L15.9546 21.9784L15.7425 20.4935ZM7.75 7.63193V7.11204H6.25V7.63193H7.75ZM7.75 17.888V17.566H6.25V17.888H7.75ZM11.4596 21.1053C10.375 21.2602 9.64029 21.3634 9.08827 21.3644C8.55747 21.3654 8.33146 21.2688 8.181 21.1383L7.1982 22.2715C7.73733 22.7391 8.3872 22.8657 9.09096 22.8644C9.77351 22.8632 10.6321 22.7388 11.6717 22.5902L11.4596 21.1053ZM6.25 17.888C6.25 18.9382 6.24824 19.8057 6.34355 20.4816C6.44182 21.1785 6.65906 21.8039 7.1982 22.2715L8.181 21.1383C8.03054 21.0078 7.90297 20.7977 7.82885 20.2721C7.75176 19.7255 7.75 18.9836 7.75 17.888H6.25ZM20.25 15.2962C20.25 16.5563 20.2486 17.431 20.1642 18.0992C20.0825 18.7464 19.9325 19.104 19.6998 19.3723L20.833 20.3551C21.3339 19.7775 21.5507 19.092 21.6524 18.2872C21.7514 17.5033 21.75 16.5172 21.75 15.2962H20.25ZM15.9546 21.9784C17.1633 21.8057 18.1397 21.6676 18.9017 21.4588C19.684 21.2443 20.332 20.9327 20.833 20.3551L19.6998 19.3723C19.4671 19.6406 19.1342 19.8397 18.5051 20.0121C17.8556 20.1902 16.9899 20.3153 15.7425 20.4935L15.9546 21.9784ZM15.7425 4.50654C16.9899 4.68474 17.8556 4.80983 18.5051 4.98786C19.1342 5.16031 19.4671 5.35938 19.6998 5.62768L20.833 4.64488C20.332 4.06729 19.684 3.75569 18.9017 3.54123C18.1397 3.33236 17.1633 3.19429 15.9546 3.02161L15.7425 4.50654ZM21.75 9.70377C21.75 8.48278 21.7514 7.49672 21.6524 6.71285C21.5507 5.90802 21.3339 5.22247 20.833 4.64488L19.6998 5.62768C19.9325 5.89598 20.0825 6.25365 20.1642 6.90083C20.2486 7.56896 20.25 8.4437 20.25 9.70377H21.75ZM11.6718 2.40978C10.6321 2.26125 9.77351 2.13682 9.09096 2.13559C8.3872 2.13433 7.73733 2.26093 7.1982 2.72852L8.181 3.8617C8.33146 3.73121 8.55747 3.63464 9.08827 3.63559C9.64029 3.63658 10.375 3.73976 11.4596 3.8947L11.6718 2.40978ZM7.75 7.11204C7.75 6.0164 7.75176 5.27449 7.82885 4.72788C7.90297 4.20228 8.03054 3.99219 8.181 3.8617L7.1982 2.72852C6.65906 3.19611 6.44182 3.82155 6.34355 4.51841C6.24824 5.19427 6.25 6.06179 6.25 7.11204H7.75Z" fill="current"/>
<path d="M16 12.5L16.5857 12.0315L16.9605 12.5L16.5857 12.9685L16 12.5ZM4 13.25C3.58579 13.25 3.25 12.9142 3.25 12.5C3.25 12.0858 3.58579 11.75 4 11.75V13.25ZM12.5857 7.03148L16.5857 12.0315L15.4143 12.9685L11.4143 7.96852L12.5857 7.03148ZM16.5857 12.9685L12.5857 17.9685L11.4143 17.0315L15.4143 12.0315L16.5857 12.9685ZM16 13.25H4V11.75H16V13.25Z" fill="current"/>
</svg>
