<svg width="111" height="50" viewBox="0 0 111 50" fill="none" xmlns="http://www.w3.org/2000/svg">
<rect x="0.5" y="0.5" width="110" height="49" rx="24.5" fill="#1D1D22" stroke="#A09BAC"/>
<path d="M28.6354 19.0511H25.0856C25.0902 19.7739 25.2399 20.4692 25.5345 21.1367C25.8338 21.8043 26.2919 22.4075 26.9088 22.9461C27.5304 23.4802 28.3016 23.8969 29.2224 24.1961L27.9586 26.116C27.0009 25.8076 26.1791 25.3541 25.4931 24.7555C24.8071 24.1524 24.2615 23.4434 23.8564 22.6285C23.4466 23.5216 22.8826 24.2951 22.1644 24.9489C21.4461 25.5981 20.5852 26.0884 19.5815 26.4199L18.2624 24.5C19.2063 24.1961 19.9982 23.761 20.6381 23.1948C21.2781 22.6285 21.7569 21.9885 22.0746 21.2749C22.3923 20.5612 22.558 19.82 22.5718 19.0511H18.9392V17.0622H28.6354V19.0511ZM20.6657 27.5041H32.634V33.8025H30.134V29.4931H20.6657V27.5041ZM30.134 16.0124H32.634V20.3356H35.0235V22.4075H32.634V26.7445H30.134V16.0124ZM42.6296 18.4365C42.625 19.256 42.7678 20.0272 43.0578 20.75C43.3479 21.4682 43.7968 22.1013 44.4045 22.6492C45.0168 23.1971 45.7834 23.6137 46.7042 23.8992L45.3783 25.8467C44.4436 25.5244 43.6471 25.0686 42.9887 24.4793C42.3304 23.89 41.8101 23.1855 41.428 22.366C41.0182 23.3191 40.4496 24.1409 39.7222 24.8315C38.9947 25.5221 38.1108 26.0424 37.0702 26.3923L35.7443 24.4033C36.7249 24.0856 37.5399 23.6298 38.189 23.0359C38.8428 22.442 39.3262 21.7629 39.6393 20.9986C39.9524 20.2297 40.1112 19.4148 40.1158 18.5539V16.9448H42.6296V18.4365ZM38.7139 30.3564C38.7139 29.6335 38.9579 29.0143 39.4459 28.4986C39.934 27.9784 40.6361 27.5824 41.5523 27.3108C42.4731 27.0345 43.562 26.8964 44.8189 26.8964C46.0804 26.8964 47.1692 27.0345 48.0854 27.3108C49.0062 27.5824 49.713 27.9784 50.2056 28.4986C50.6982 29.0143 50.9445 29.6335 50.9445 30.3564C50.9445 31.0792 50.6982 31.6984 50.2056 32.2141C49.713 32.7343 49.0062 33.128 48.0854 33.395C47.1692 33.6621 46.0804 33.7956 44.8189 33.7956C43.5573 33.7956 42.4685 33.6621 41.5523 33.395C40.6361 33.128 39.934 32.7343 39.4459 32.2141C38.9579 31.6984 38.7139 31.0792 38.7139 30.3564ZM41.1932 30.3564C41.1886 30.8444 41.4924 31.2173 42.1048 31.4751C42.7171 31.7284 43.6057 31.855 44.7705 31.855C45.9722 31.855 46.8884 31.7284 47.5191 31.4751C48.1499 31.2219 48.4676 30.849 48.4722 30.3564C48.4676 29.8499 48.1545 29.4701 47.5329 29.2169C46.9114 28.959 46.0067 28.8301 44.8189 28.8301C43.6356 28.8301 42.7332 28.959 42.1117 29.2169C41.4947 29.4701 41.1886 29.8499 41.1932 30.3564ZM45.0744 19.279H48.41V16.0124H50.8962V26.4406H48.41V21.3163H45.0744V19.279ZM63.3568 16.7514C64.2131 16.7514 64.9797 16.9033 65.6565 17.2072C66.3379 17.511 66.8697 17.9369 67.2518 18.4848C67.6385 19.0327 67.8342 19.6588 67.8388 20.3633C67.8342 20.9342 67.6984 21.459 67.4313 21.9378C67.1643 22.4121 66.7914 22.8126 66.3126 23.1395C65.8337 23.4664 65.2766 23.6966 64.6413 23.8301V25.1354C66.2113 25.0341 67.5741 24.9006 68.7297 24.7348L68.9162 26.5442C67.2863 26.8389 65.5782 27.0345 63.7918 27.1312C62.0101 27.2279 60.1523 27.2762 58.2186 27.2762L57.9562 25.3011C59.5952 25.3011 60.9903 25.2827 62.1413 25.2459V23.8439C61.4921 23.715 60.9212 23.4871 60.4286 23.1602C59.9359 22.8333 59.5538 22.4305 59.2822 21.9517C59.0151 21.4682 58.8839 20.9388 58.8885 20.3633C58.8839 19.6588 59.0704 19.0327 59.4479 18.4848C59.8301 17.9369 60.3618 17.511 61.0432 17.2072C61.7246 16.9033 62.4958 16.7514 63.3568 16.7514ZM60.3043 28.4088H62.8181V31.4682H72.8319V33.471H60.3043V28.4088ZM61.2021 20.3633C61.1975 20.7132 61.2849 21.0193 61.4645 21.2818C61.6487 21.5396 61.9042 21.7376 62.2311 21.8757C62.558 22.0092 62.9332 22.076 63.3568 22.076C63.7803 22.076 64.1533 22.0092 64.4755 21.8757C64.7978 21.7376 65.0487 21.5396 65.2283 21.2818C65.4079 21.0239 65.4976 20.7178 65.4976 20.3633C65.493 19.8154 65.2974 19.3918 64.9106 19.0925C64.5239 18.7887 64.0059 18.6344 63.3568 18.6298C62.9332 18.6344 62.558 18.7035 62.2311 18.837C61.9042 18.9705 61.6487 19.1685 61.4645 19.4309C61.2849 19.6888 61.1975 19.9995 61.2021 20.3633ZM69.7242 16.0401H72.2173V21.634H74.4963V23.7058H72.2173V29.6036H69.7242V16.0401ZM91.6535 31.8135H75.3966V29.7762H79.561V27.0483H77.2682V21.0815H87.3165V19.1754H77.2405V17.1727H89.782V23.0635H79.7543V25.0387H90.1963V27.0483H87.6825V29.7762H91.6535V31.8135ZM85.2309 29.7762V27.0483H81.985V29.7762H85.2309Z" fill="#A09BAC"/>
</svg>
